<svg viewBox="0 0 685.8333129882812 400" xmlns="http://www.w3.org/2000/svg"><g><g><g><g><g><line x1="41.171875" y1="377" x2="36.171875" y2="377" style="visibility: inherit;" fill="rgb(0, 0, 0)" stroke="rgb(204, 204, 204)" stroke-width="1px"></line><line x1="41.171875" y1="335.1111111111111" x2="36.171875" y2="335.1111111111111" style="visibility: inherit;" fill="rgb(0, 0, 0)" stroke="rgb(204, 204, 204)" stroke-width="1px"></line><line x1="41.171875" y1="293.22222222222223" x2="36.171875" y2="293.22222222222223" style="visibility: inherit;" fill="rgb(0, 0, 0)" stroke="rgb(204, 204, 204)" stroke-width="1px"></line><line x1="41.171875" y1="251.33333333333337" x2="36.171875" y2="251.33333333333337" style="visibility: inherit;" fill="rgb(0, 0, 0)" stroke="rgb(204, 204, 204)" stroke-width="1px"></line><line x1="41.171875" y1="209.44444444444446" x2="36.171875" y2="209.44444444444446" style="visibility: inherit;" fill="rgb(0, 0, 0)" stroke="rgb(204, 204, 204)" stroke-width="1px"></line><line x1="41.171875" y1="167.55555555555554" x2="36.171875" y2="167.55555555555554" style="visibility: inherit;" fill="rgb(0, 0, 0)" stroke="rgb(204, 204, 204)" stroke-width="1px"></line><line x1="41.171875" y1="125.66666666666669" x2="36.171875" y2="125.66666666666669" style="visibility: inherit;" fill="rgb(0, 0, 0)" stroke="rgb(204, 204, 204)" stroke-width="1px"></line><line x1="41.171875" y1="83.77777777777777" x2="36.171875" y2="83.77777777777777" style="visibility: inherit;" fill="rgb(0, 0, 0)" stroke="rgb(204, 204, 204)" stroke-width="1px"></line><line x1="41.171875" y1="41.88888888888891" x2="36.171875" y2="41.88888888888891" style="visibility: inherit;" fill="rgb(0, 0, 0)" stroke="rgb(204, 204, 204)" stroke-width="1px"></line><line x1="41.171875" y1="0" x2="36.171875" y2="0" style="visibility: inherit;" fill="rgb(0, 0, 0)" stroke="rgb(204, 204, 204)" stroke-width="1px"></line></g><g transform="translate(31.171875, 0)"><text x="0" y="377" dx="0em" dy="0.3em" style="text-anchor: end; visibility: hidden; font-family: Roboto, sans-serif; font-size: 12px; font-weight: 200;" fill="rgb(255, 255, 255)" stroke="none" stroke-width="1px">110</text><text x="0" y="335.1111111111111" dx="0em" dy="0.3em" style="text-anchor: end; visibility: inherit; font-family: Roboto, sans-serif; font-size: 12px; font-weight: 200;" fill="rgb(255, 255, 255)" stroke="none" stroke-width="1px">120</text><text x="0" y="293.22222222222223" dx="0em" dy="0.3em" style="text-anchor: end; visibility: inherit; font-family: Roboto, sans-serif; font-size: 12px; font-weight: 200;" fill="rgb(255, 255, 255)" stroke="none" stroke-width="1px">130</text><text x="0" y="251.33333333333337" dx="0em" dy="0.3em" style="text-anchor: end; visibility: inherit; font-family: Roboto, sans-serif; font-size: 12px; font-weight: 200;" fill="rgb(255, 255, 255)" stroke="none" stroke-width="1px">140</text><text x="0" y="209.44444444444446" dx="0em" dy="0.3em" style="text-anchor: end; visibility: inherit; font-family: Roboto, sans-serif; font-size: 12px; font-weight: 200;" fill="rgb(255, 255, 255)" stroke="none" stroke-width="1px">150</text><text x="0" y="167.55555555555554" dx="0em" dy="0.3em" style="text-anchor: end; visibility: inherit; font-family: Roboto, sans-serif; font-size: 12px; font-weight: 200;" fill="rgb(255, 255, 255)" stroke="none" stroke-width="1px">160</text><text x="0" y="125.66666666666669" dx="0em" dy="0.3em" style="text-anchor: end; visibility: inherit; font-family: Roboto, sans-serif; font-size: 12px; font-weight: 200;" fill="rgb(255, 255, 255)" stroke="none" stroke-width="1px">170</text><text x="0" y="83.77777777777777" dx="0em" dy="0.3em" style="text-anchor: end; visibility: inherit; font-family: Roboto, sans-serif; font-size: 12px; font-weight: 200;" fill="rgb(255, 255, 255)" stroke="none" stroke-width="1px">180</text><text x="0" y="41.88888888888891" dx="0em" dy="0.3em" style="text-anchor: end; visibility: inherit; font-family: Roboto, sans-serif; font-size: 12px; font-weight: 200;" fill="rgb(255, 255, 255)" stroke="none" stroke-width="1px">190</text><text x="0" y="0" dx="0em" dy="0.3em" style="text-anchor: end; visibility: hidden; font-family: Roboto, sans-serif; font-size: 12px; font-weight: 200;" fill="rgb(255, 255, 255)" stroke="none" stroke-width="1px">200</text></g><line x1="41.171875" y1="0" x2="41.171875" y2="377" fill="rgb(0, 0, 0)" stroke="rgb(204, 204, 204)" stroke-width="1px"></line></g></g><g transform="translate(41, 0)" clip-path="url(#clip_0)"><clipPath id="clip_0"><rect width="644" height="376"></rect></clipPath><g><g><g><line x1="0" y1="0" x2="0" y2="377" fill="rgb(0, 0, 0)" stroke="rgb(189, 189, 189)" stroke-width="1px" opacity="0.25"></line><line x1="53.72176041666666" y1="0" x2="53.72176041666666" y2="377" fill="rgb(0, 0, 0)" stroke="rgb(189, 189, 189)" stroke-width="1px" opacity="0.25"></line><line x1="107.44352083333332" y1="0" x2="107.44352083333332" y2="377" fill="rgb(0, 0, 0)" stroke="rgb(189, 189, 189)" stroke-width="1px" opacity="0.25"></line><line x1="161.16528125" y1="0" x2="161.16528125" y2="377" fill="rgb(0, 0, 0)" stroke="rgb(189, 189, 189)" stroke-width="1px" opacity="0.25"></line><line x1="214.88704166666665" y1="0" x2="214.88704166666665" y2="377" fill="rgb(0, 0, 0)" stroke="rgb(189, 189, 189)" stroke-width="1px" opacity="0.25"></line><line x1="268.60880208333333" y1="0" x2="268.60880208333333" y2="377" fill="rgb(0, 0, 0)" stroke="rgb(189, 189, 189)" stroke-width="1px" opacity="0.25"></line><line x1="322.3305625" y1="0" x2="322.3305625" y2="377" fill="rgb(0, 0, 0)" stroke="rgb(189, 189, 189)" stroke-width="1px" opacity="0.25"></line><line x1="376.0523229166667" y1="0" x2="376.0523229166667" y2="377" fill="rgb(0, 0, 0)" stroke="rgb(189, 189, 189)" stroke-width="1px" opacity="0.25"></line><line x1="429.7740833333333" y1="0" x2="429.7740833333333" y2="377" fill="rgb(0, 0, 0)" stroke="rgb(189, 189, 189)" stroke-width="1px" opacity="0.25"></line><line x1="483.49584374999995" y1="0" x2="483.49584374999995" y2="377" fill="rgb(0, 0, 0)" stroke="rgb(189, 189, 189)" stroke-width="1px" opacity="0.25"></line><line x1="537.2176041666667" y1="0" x2="537.2176041666667" y2="377" fill="rgb(0, 0, 0)" stroke="rgb(189, 189, 189)" stroke-width="1px" opacity="0.25"></line><line x1="590.9393645833333" y1="0" x2="590.9393645833333" y2="377" fill="rgb(0, 0, 0)" stroke="rgb(189, 189, 189)" stroke-width="1px" opacity="0.25"></line><line x1="644.661125" y1="0" x2="644.661125" y2="377" fill="rgb(0, 0, 0)" stroke="rgb(189, 189, 189)" stroke-width="1px" opacity="0.25"></line></g><g><line x1="0" y1="377" x2="644.661125" y2="377" fill="rgb(0, 0, 0)" stroke="rgb(189, 189, 189)" stroke-width="1px" opacity="0.25"></line><line x1="0" y1="335.1111111111111" x2="644.661125" y2="335.1111111111111" fill="rgb(0, 0, 0)" stroke="rgb(189, 189, 189)" stroke-width="1px" opacity="0.25"></line><line x1="0" y1="293.22222222222223" x2="644.661125" y2="293.22222222222223" fill="rgb(0, 0, 0)" stroke="rgb(189, 189, 189)" stroke-width="1px" opacity="0.25"></line><line x1="0" y1="251.33333333333337" x2="644.661125" y2="251.33333333333337" fill="rgb(0, 0, 0)" stroke="rgb(189, 189, 189)" stroke-width="1px" opacity="0.25"></line><line x1="0" y1="209.44444444444446" x2="644.661125" y2="209.44444444444446" fill="rgb(0, 0, 0)" stroke="rgb(189, 189, 189)" stroke-width="1px" opacity="0.25"></line><line x1="0" y1="167.55555555555554" x2="644.661125" y2="167.55555555555554" fill="rgb(0, 0, 0)" stroke="rgb(189, 189, 189)" stroke-width="1px" opacity="0.25"></line><line x1="0" y1="125.66666666666669" x2="644.661125" y2="125.66666666666669" fill="rgb(0, 0, 0)" stroke="rgb(189, 189, 189)" stroke-width="1px" opacity="0.25"></line><line x1="0" y1="83.77777777777777" x2="644.661125" y2="83.77777777777777" fill="rgb(0, 0, 0)" stroke="rgb(189, 189, 189)" stroke-width="1px" opacity="0.25"></line><line x1="0" y1="41.88888888888891" x2="644.661125" y2="41.88888888888891" fill="rgb(0, 0, 0)" stroke="rgb(189, 189, 189)" stroke-width="1px" opacity="0.25"></line><line x1="0" y1="0" x2="644.661125" y2="0" fill="rgb(0, 0, 0)" stroke="rgb(189, 189, 189)" stroke-width="1px" opacity="0.25"></line></g></g></g><g><g><line x1="0" y1="837.7777777777778" x2="644.661125" y2="837.7777777777778" fill="rgb(0, 0, 0)" stroke="rgb(153, 153, 153)" stroke-width="1.5px"></line></g></g><g><g><line x1="53.72176041666666" y1="0" x2="53.72176041666666" y2="377" fill="rgb(0, 0, 0)" stroke="rgb(153, 153, 153)" stroke-width="1.5px"></line></g></g><g><g><g><g><g><path stroke="rgb(255, 112, 67)" stroke-width="2px" d="M60.168371666666665,-0.8619959634248731L61.242806875,1.729321014315404L62.317242083333326,4.864515312402664L63.39167729166666,6.136309981362082L64.4661125,6.017290317661473L65.54054770833334,7.7450725176566975L66.61498291666666,8.306159107133118L67.68941812499999,9.901956402498055L68.76385333333333,11.352821832137872L69.83828854166667,14.419493629208965L70.91272375,15.443243483409125L71.98715895833332,17.505528693687122L73.06159416666667,18.46929544668573L74.136029375,18.361000139441877L75.21046458333333,18.917312946736388L76.28489979166666,20.52351086751267L77.35933499999999,21.409843002286447L78.43377020833333,22.457662617253686L79.50820541666667,23.663784234572102L80.582640625,25.389339593620473L81.65707583333334,26.498446916540836L82.73151104166666,27.807049234162385L83.80594625,29.882918424501252L84.88038145833332,31.300956223504187L85.95481666666666,32.01727979480641L87.029251875,31.413230625055697L88.10368708333333,34.12220428159861L89.17812229166667,36.07417317369454L90.25255750000001,36.39514050463712L91.32699270833332,37.364094124611704L92.40142791666666,38.44177658543956L93.47586312499999,39.827141895693195L94.55029833333333,41.119388711842475L95.62473354166667,43.13937965287446L96.69916875,43.54062605466066L97.77360395833333,44.8555213038194L98.84803916666665,46.34175121008031L99.922474375,47.17641904415215L100.99690958333333,48.28293064948384L102.07134479166666,44.47314294758499L103.14578,47.875810897459125L104.22021520833331,50.46958908441774L105.29465041666666,51.609715530842365L106.369085625,51.11377916323204L107.44352083333332,53.55780626357756L108.51795604166666,53.51189853937984L109.59239125,55.79164807602037L110.66682645833332,57.81516789084075L111.74126166666666,57.74298458486616L112.81569687499999,59.91084871195337L113.89013208333333,58.48779098803589L114.96456729166667,55.205406973803505L116.0390025,59.93129470584794L117.11343770833334,57.65051200396705L118.18787291666665,62.59678009672451L119.26230812499999,65.72411391042212L120.33674333333333,65.7453097267458L121.41117854166666,67.07653397269897L122.48561375,69.56146052316882L123.56004895833334,70.28854271254707L124.63448416666665,71.47290734860829L125.708919375,71.73656425181292L126.78335458333332,73.34580454425905L127.85778979166666,73.9608094480941L128.932225,73.60941284193794L130.00666020833333,74.01404113867676L131.08109541666667,72.77453302166461L132.15553062499998,74.93495106292924L133.22996583333332,78.6139425948607L134.30440104166667,77.50527678899508L135.37883624999998,74.55991521701726L136.45327145833332,76.17736971943033L137.52770666666666,72.97490987349225L138.602141875,74.25136876619297L139.67657708333334,80.9018283802414L140.75101229166665,83.32991317448881L141.8254475,83.73859005676826L142.89988270833334,83.9930470407231L143.97431791666665,87.40131025815849L145.048753125,87.34823624375697L146.12318833333333,90.43746656275255L147.19762354166667,90.5563924968863L148.27205875,91.38810122384814L149.34649395833333,93.58057798172189L150.42092916666667,93.25302275193673L151.49536437499998,93.79466608089047L152.56979958333332,95.91630921660243L153.64423479166666,98.20248257575716L154.71866999999997,98.63976608437521L155.79310520833332,99.65121777746228L156.86754041666666,101.5829348887679L157.941975625,101.93587127654669L159.01641083333334,103.43694013552339L160.09084604166665,105.32817158517989L161.16528125,104.65423245847194L162.2397164583333,106.13706468846395L163.31415166666667,106.88647489978636L164.388586875,108.53048683284038L165.46302208333333,109.17743542205608L166.53745729166667,110.89706006192853L167.6118925,111.95709938541421L168.68632770833332,112.85642222196871L169.76076291666664,112.8641836796464L170.835198125,111.57721177990047L171.90963333333332,114.37290771234368L172.98406854166666,115.63097290963303L174.05850375,113.9872083653188L175.1329389583333,116.66322778060302L176.20737416666665,117.69370152973053L177.281809375,119.60200551583277L178.35624458333334,118.94775864162881L179.43067979166665,119.72977681469342L180.50511500000002,118.1777026905256L181.57955020833333,121.22110697984654L182.65398541666664,124.29170889440282L183.72842062499998,125.44635679056361L184.80285583333333,126.21246996671327L185.87729104166667,125.58660063238698L186.95172624999998,126.55125700999346L188.02616145833335,129.020073716477L189.10059666666666,130.18469642842953L190.17503187499997,128.7473530643995L191.24946708333334,128.29551137100384L192.32390229166666,130.17695535766964L193.3983375,131.8839180607842L194.47277270833334,131.58575068511053L195.54720791666665,134.03819245308466L196.621643125,133.46386844734076L197.6960783333333,135.59179498294472L198.77051354166667,136.63071078904477L199.84494875,137.03848206706462L200.9193839583333,138.84805915344285L201.99381916666667,141.0662066826208L203.06825437499998,140.54190531667567L204.14268958333332,141.35830757755173L205.21712479166666,143.2195817873237L206.29156,144.09179482370178L207.36599520833332,143.81149062207444L208.44043041666663,142.81202593869187L209.514865625,139.72483664152674L210.5893008333333,143.85343498580366L211.66373604166665,146.48921819815766L212.73817125,146.6118641757818L213.81260645833333,147.4022141945951L214.88704166666665,150.99911052101598L215.96147687500002,150.00384494470137L217.03591208333333,151.48127027772674L218.11034729166664,153.85571815364477L219.1847825,154.74171272224808L220.25921770833332,152.2563569890492L221.33365291666664,155.69224712829438L222.40808812499998,156.8735134295705L223.48252333333332,156.45518185633983L224.55695854166666,157.5934453446624L225.63139374999997,158.6815826440685L226.70582895833334,159.8383285712001L227.78026416666665,160.0452420737726L228.85469937499997,161.6846382143658L229.92913458333334,161.66214211056203L231.00356979166665,163.65622922064688L232.078005,164.57901904716104L233.15244020833333,166.15505414264385L234.22687541666667,165.56847621801182L235.30131062499999,167.43074164437448L236.3757458333333,167.486876731461L237.45018104166667,167.54777299965272L238.52461624999998,168.2718452169392L239.59905145833332,169.77572437222153L240.67348666666666,168.61891333319878L241.74792187499997,170.84421730647043L242.82235708333332,172.56830244690434L243.89679229166666,174.27257178816214L244.9712275,175.39950393061636L246.0456627083333,172.95587282507262L247.12009791666668,173.59679204744648L248.194533125,172.03473023444442L249.2689683333333,170.74697571945023L250.34340354166665,176.1082026578298L251.41783875,178.83667603322172L252.49227395833333,178.26915922216983L253.56670916666664,179.75140636571197L254.641144375,181.63190620058288L255.71557958333332,181.554254890632L256.79001479166664,182.96751525929406L257.86445,180.59229115749628L258.9388852083333,182.28249384991145L260.01332041666666,184.53575278444353L261.087755625,185.20990442709154L262.16219083333334,187.24577840988488L263.2366260416666,188.52014310481852L264.31106124999997,182.46885104229162L265.3854964583333,185.23413112212754L266.45993166666665,188.42054715300605L267.534366875,189.75005115705056L268.60880208333333,188.26365590718166L269.68323729166667,190.01262488759264L270.75767249999996,190.17876351558036L271.83210770833335,191.83560457410516L272.90654291666664,192.89599715761318L273.980978125,194.9777112886874L275.0554133333333,195.27052261238236L276.12984854166666,196.93419143438575L277.20428375,196.09848385493626L278.2787189583333,195.6736635046481L279.3531541666667,196.01674854547284L280.42758937499997,198.39758697973923L281.5020245833333,201.20799884110943L282.57645979166665,202.0988701845808L283.650895,202.79927235788875L284.72533020833333,202.80421355010213L285.7997654166667,203.49125299994495L286.874200625,202.0883979565231L287.9486358333333,204.38954588361273L289.02307104166664,203.31766205674336L290.09750625,205.55203401067897L291.1719414583333,206.92216337446933L292.24637666666666,207.87642698332976L293.320811875,208.01886325129237L294.39524708333335,210.59963044945653L295.46968229166663,212.2507983176557L296.5441175,213.08985929081962L297.6185527083333,213.34440688948692L298.69298791666665,214.55069580954526L299.767423125,214.7973029180129L300.84185833333333,215.3652316161747L301.9162935416666,214.15922949776134L302.99072874999996,216.46226612451736L304.0651639583333,219.30359469335096L305.13959916666664,216.49593946381293L306.214034375,216.07448329553904L307.2884695833333,218.29028800352114L308.36290479166667,218.85305722666192L309.43733999999995,219.29220621097582L310.51177520833335,219.99403370055694L311.58621041666663,220.94206247235886L312.660645625,221.9339333440319L313.7350808333333,224.46577759506516L314.80951604166665,223.25991678055863L315.88395125,225.09805988831798L316.9583864583333,224.17873846976363L318.0328216666667,226.4371048088951L319.10725687499996,226.89625396148085L320.1816920833333,227.8504623509746L321.25612729166664,228.51452142361535L322.3305625,227.86766803504761L323.4049977083333,227.12703066308853L324.4794329166666,229.57346515485395L325.553868125,232.16240747658443L326.62830333333335,227.37936645919467L327.70273854166663,230.1114320451761L328.77717375,229.83673757626806L329.8516089583334,229.21743376253633L330.92604416666666,231.63406654540313L332.000479375,231.77074542127386L333.07491458333334,234.52318373280156L334.1493497916666,238.2312812787908L335.223785,234.86186508954262L336.2982202083333,227.42695533923043L337.37265541666665,235.91526128150937L338.447090625,231.13085262746014L339.52152583333327,232.25328387943688L340.59596104166667,234.31017676102132L341.67039625,235.420372213772L342.7448314583333,237.59848819330446L343.81926666666664,242.10099092739475L344.893701875,242.40722214470549L345.9681370833333,244.89850248672195L347.04257229166666,243.41536099166893L348.1170075,244.53014135586875L349.1914427083333,245.77141739604392L350.2658779166666,247.5970267127031L351.340313125,248.03692107311926L352.4147483333333,248.7294894888301L353.48918354166665,246.62690549241364L354.56361875,249.97915861054912L355.6380539583333,246.82812219757093L356.71248916666667,249.20885675350118L357.786924375,247.98993442660498L358.8613595833333,246.6526696264854L359.93579479166664,249.889702010538L361.01023000000004,252.46469121021858L362.0846652083333,255.09850833867657L363.15910041666666,253.5923327900496L364.23353562499994,255.60143972477508L365.3079708333333,257.65221594074404L366.3824060416667,258.63622889814695L367.45684124999997,257.6957060956842L368.5312764583333,259.998373511706L369.60571166666665,260.13102469442526L370.68014687499993,261.24485510673236L371.75458208333333,255.96552300131404L372.8290172916667,257.99987317044673L373.90345249999996,261.89198959278974L374.9778877083333,263.1717430212957L376.0523229166667,261.4887083400391L377.126758125,264.29724152495515L378.2011933333333,265.8882178561664L379.27562854166666,266.6178491628139L380.35006374999995,267.35779532957577L381.42449895833334,267.88438732493813L382.4989341666667,268.60436143981457L383.57336937499997,268.4648303004568L384.6478045833333,265.56814489280333L385.7222397916667,263.0727875219541L386.796675,266.1717080218371L387.87111020833333,266.9587009128673L388.9455454166667,270.79322060254736L390.01998062499996,272.3085359150053L391.0944158333333,273.4868370230399L392.16885104166664,274.89779656312663L393.24328625,272.1635459264852L394.3177214583333,269.01059649888384L395.3921566666666,271.7850127810838L396.46659187499995,275.52841398942996L397.54102708333335,276.72767939420066L398.61546229166663,275.27568266459036L399.6898975,271.88551809143917L400.7643327083333,275.0345211161826L401.8387679166666,276.398915699738L402.913203125,273.5630639319011L403.98763833333334,276.7130025172018L405.0620735416666,275.0541663517621L406.13650874999996,271.9672633998621L407.21094395833336,276.2814273696063L408.28537916666664,280.5024511207907L409.359814375,280.23877701746443L410.4342495833333,278.2630937228078L411.5086847916666,280.6957007274135L412.58312,283.56384545099905L413.65755520833335,283.9184324707514L414.73199041666663,285.6819822378617L415.806425625,287.7827337036369L416.88086083333326,287.85066112622496L417.95529604166666,285.093614155866L419.02973125,288.22264345860987L420.1041664583333,284.7699376999573L421.1786016666666,287.40416336780095L422.253036875,290.3162478351757L423.3274720833333,289.4147601460501L424.40190729166665,290.69055417391513L425.4763425,292.2888678219438L426.55077770833327,291.1280196646053L427.62521291666667,286.47669446563117L428.699648125,287.46538492540805L429.7740833333333,291.85990858659517L430.84851854166664,293.7249477002598L431.92295375000003,295.4608383159234L432.9973889583333,293.7853558387985L434.07182416666666,296.0809797086878L435.146259375,296.2183134578291L436.2206945833333,293.35532925943323L437.2951297916666,295.80190319371394L438.369565,296.9272829695583L439.4440002083333,297.90420171705557L440.51843541666665,300.26591186922343L441.592870625,298.0970459072516L442.6673058333333,301.5549237961287L443.74174104166667,300.7639756914786L444.81617624999996,298.69307870158406L445.8906114583333,302.13019040997455L446.96504666666664,300.37831597468085L448.0394818749999,299.8337563262215L449.1139170833333,303.1737529436982L450.18835229166666,303.1802708977173L451.26278749999994,299.0291359665298L452.3372227083333,300.87714148901125L453.4116579166667,303.95517360891387L454.48609312499997,305.29119429420433L455.5605283333333,305.19462971791705L456.63496354166665,307.19742722756604L457.70939874999993,307.2511741168935L458.78383395833333,307.7638034451373L459.8582691666667,309.185495799435L460.93270437499996,309.56587850400734L462.0071395833333,308.5287900718234L463.0815747916667,308.60582457262836L464.15601,308.73022307275227L465.2304452083333,309.6907944469717L466.30488041666666,311.82160600483695L467.37931562499995,310.4788664683397L468.45375083333334,310.34078452399166L469.5281860416667,308.80638705195764L470.60262124999997,310.6459594494482L471.6770564583333,313.0616048174666L472.7514916666666,314.0432189795319L473.825926875,315.91012146670204L474.90036208333333,317.00727337674766L475.9747972916666,317.15923837777353L477.04923249999996,314.59593515176937L478.12366770833336,308.9149499518755L479.19810291666664,311.3084677700023L480.272538125,316.05550029057105L481.3469733333333,315.6700152740159L482.4214085416666,311.8593372854516L483.49584374999995,315.9132243621154L484.57027895833335,317.9236004407364L485.64471416666663,318.24329497794037L486.719149375,318.77398313068153L487.7935845833333,320.15494889081356L488.8680197916666,317.36613325343944L489.942455,319.0244834518362L491.01689020833334,322.1295902230845L492.0913254166666,320.2826290904352L493.16576062499996,320.7929347956126L494.24019583333336,320.0347427177233L495.31463104166664,317.8613868911589L496.38906625,325.12334262518925L497.46350145833327,314.7317505749874L498.5379366666666,316.75259888675777L499.612371875,317.3780381050291L500.6868070833333,314.6645236165716L501.76124229166663,317.83864999474235L502.8356775,312.8410708231287L503.91011270833326,318.1569742270636L504.98454791666666,318.2498892846123L506.058983125,321.00965527977695L507.1334183333333,309.8882749717716L508.2078535416666,319.1780040901621L509.28228875,323.48322760001327L510.3567239583333,326.0250227357463L511.43115916666665,325.49642973795824L512.505594375,328.77101141645073L513.5800295833333,330.2854044640509L514.6544647916667,329.6180008952946L515.7289,332.00770818990236L516.8033352083332,333.42457267865035L517.8777704166666,334.7952707629241L518.952205625,333.2156718489989L520.0266408333333,332.62709757987824L521.1010760416666,335.0147636498847L522.17551125,335.4844373184185L523.2499464583333,334.69982623031916L524.3243816666667,335.1417603554151L525.398816875,337.5203848098931L526.4732520833333,336.80047546963425L527.5476872916666,335.6173824085974L528.6221224999999,335.64394808654095L529.6965577083333,334.9820130726344L530.7709929166666,338.0402687178455L531.8454281249999,339.0842897276332L532.9198633333333,339.3029661707789L533.9942985416667,338.1238602580418L535.06873375,337.2826181043429L536.1431689583333,339.87852305008334L537.2176041666667,342.08123437122424L538.292039375,338.42996796126977L539.3664745833333,340.66810766176354L540.4409097916666,341.0995505479445L541.5153449999999,341.150726539555L542.5897802083333,342.39773360083325L543.6642154166667,338.6001216827689L544.738650625,339.35987926534347L545.8130858333333,337.9954124246106L546.8875210416667,340.27665517360265L547.96195625,338.84033418730115L549.0363914583334,342.0319249634291L550.1108266666666,343.5997150894115L551.1852618749999,340.31035489587225L552.2596970833333,343.3476428078038L553.3341322916666,332.8994876607709L554.4085675,336.089076118948L555.4830027083333,342.5904195509328L556.5574379166666,337.67237684064196L557.631873125,341.47870435384925L558.7063083333334,343.5798878814661L559.7807435416667,344.79423356609027L560.8551787499999,345.79024860783824L561.9296139583333,349.6229202348566L563.0040491666666,349.44383721347407L564.078484375,347.4163728572596L565.1529195833333,349.8014104520889L566.2273547916666,341.58516727936836L567.30179,343.50469589507264L568.3762252083334,344.695616232392L569.4506604166667,348.32114585303685L570.525095625,350.91483765482127L571.5995308333333,353.0264567874424L572.6739660416666,353.9882243315086L573.74840125,353.03101034855536L574.8228364583333,354.6560047004444L575.8972716666666,353.1128369199543L576.971706875,355.5127515323433L578.0461420833333,349.8673424044844L579.1205772916667,352.3633084715961L580.1950125,355.13689823384436L581.2694477083332,352.4533165894089L582.3438829166666,353.2208079307263L583.418318125,357.14486417271524L584.4927533333333,358.7820186913929L585.5671885416666,358.64627292634617L586.64162375,360.91851080471776L587.7160589583333,360.4113444235633L588.7904941666667,360.7662752098144L589.864929375,362.2773375300397" style="fill: none;" fill="none"></path></g></g></g></g><g opacity="0.2"><g><g><g><path stroke="rgb(255, 112, 67)" stroke-width="2px" d="M59.093936458333324,-8.13866288926864L60.168371666666665,2.7893541124132035L61.242806875,3.9887635972764848L62.317242083333326,7.60527242024739L63.39167729166666,7.2494444105360065L64.4661125,5.9130599975586025L65.54054770833334,9.25855916341146L66.61498291666666,8.797714911566853L67.68941812499999,11.30008002387154L68.76385333333333,12.624000549316406L69.83828854166667,17.10639801025389L70.91272375,16.340220472547742L71.98715895833332,19.31244218614365L73.06159416666667,19.313720533582906L74.136029375,18.266114807128922L75.21046458333333,19.40473887125649L76.28489979166666,21.93081732855904L77.35933499999999,22.186422899034305L78.43377020833333,23.3757334391276L79.50820541666667,24.720554945204007L80.582640625,26.901223924424922L81.65707583333334,27.470216369628922L82.73151104166666,28.953610738118474L83.80594625,31.70173814561633L84.88038145833332,32.54340209960936L85.95481666666666,32.64490288628473L87.029251875,30.88397928873696L88.10368708333333,36.49573279486764L89.17812229166667,37.78443484836156L90.25255750000001,36.67636328803167L91.32699270833332,38.21306474473743L92.40142791666666,39.38601243760849L93.47586312499999,41.04096103244358L94.55029833333333,42.25161997477215L95.62473354166667,44.90924038357206L96.69916875,43.892187160915796L97.77360395833333,46.007596503363736L98.84803916666665,47.64394514295788L99.922474375,47.90773213704426L100.99690958333333,49.25242580837675L102.07134479166666,41.135111321343295L103.14578,50.857135348849845L104.22021520833331,52.7421864827474L105.29465041666666,52.608663092719205L106.369085625,50.67925330268013L107.44352083333332,55.699195861816406L108.51795604166666,53.4716754489475L109.59239125,57.78910217285158L110.66682645833332,59.58812052408854L111.74126166666666,57.67973954942493L112.81569687499999,61.81027187771269L113.89013208333333,57.24094679090712L114.96456729166667,52.32947201199L116.0390025,64.07198808458116L117.11343770833334,55.65215267605253L118.18787291666665,66.930564710829L119.26230812499999,68.46419813368055L120.33674333333333,65.76388092041014L121.41117854166666,68.24291619194878L122.48561375,71.73868509928383L123.56004895833334,70.92559221055774L124.63448416666665,72.51061520046659L125.708919375,71.96757320827908L126.78335458333332,74.75577680799694L127.85778979166666,74.49965989854599L128.932225,73.30152876112197L130.00666020833333,74.36856536865236L131.08109541666667,71.68850996229384L132.15553062499998,76.82785017225478L133.22996583333332,81.83737419976127L134.30440104166667,76.53389417860245L135.37883624999998,71.97927008734808L136.45327145833332,77.59453904893661L137.52770666666666,70.16900227864585L138.602141875,75.36976708306207L139.67657708333334,86.72877892388237L140.75101229166665,85.45733456081814L141.8254475,84.09666154649523L142.89988270833334,84.21599527994789L143.97431791666665,90.38753712972004L145.048753125,87.30173424614799L146.12318833333333,93.14416554768883L147.19762354166667,90.66059214274088L148.27205875,92.11682162814668L149.34649395833333,95.5015660603841L150.42092916666667,92.96602783203127L151.49536437499998,94.26923912896052L152.56979958333332,97.77523481580948L153.64423479166666,100.20556504991322L154.71866999999997,99.02290191650388L155.79310520833332,100.53742404513889L156.86754041666666,103.27545250786676L157.941975625,102.24510447184247L159.01641083333334,104.75213555230033L160.09084604166665,106.98521677652997L161.16528125,104.0637454562717L162.2397164583333,107.4362816704644L163.31415166666667,107.54308759901261L164.388586875,109.97092505560983L165.46302208333333,109.74427405463325L166.53745729166667,112.40374806722008L167.6118925,112.88587680392794L168.68632770833332,113.6443842569987L169.76076291666664,112.87098405626085L170.835198125,110.44960225423176L171.90963333333332,116.82241990831164L172.98406854166666,116.73325517442493L174.05850375,112.54698689778644L175.1329389583333,119.00788269042971L176.20737416666665,118.59657440185549L177.281809375,121.27400919596352L178.35624458333334,118.37452545166013L179.43067979166665,120.41495971679689L180.50511500000002,116.81781785753037L181.57955020833333,123.88765445285372L182.65398541666664,126.98208618164062L183.72842062499998,126.45802764892579L184.80285583333333,126.88371734619142L185.87729104166667,125.03823106553818L186.95172624999998,127.396462504069L188.02616145833335,131.18318328857424L189.10059666666666,131.2051069471571L190.17503187499997,127.48799218071832L191.24946708333334,127.89962005615234L192.32390229166666,131.82542504204645L193.3983375,133.37951202392577L194.47277270833334,131.3245045979818L195.54720791666665,136.18695475260415L196.621643125,132.9606614854601L197.6960783333333,137.45622592502173L198.77051354166667,137.54098036024305L199.84494875,137.39576009114586L200.9193839583333,140.43356102837458L201.99381916666667,143.00968678792316L203.06825437499998,140.08252682156035L204.14268958333332,142.07361687554254L205.21712479166666,144.85037926567924L206.29156,144.85600399441188L207.36599520833332,143.56589575873483L208.44043041666663,141.93632236056857L209.514865625,137.01992594401042L210.5893008333333,147.47079976399738L211.66373604166665,148.79861924913195L212.73817125,146.71932322184244L213.81260645833333,148.09469723171657L214.88704166666665,154.15061255560983L215.96147687500002,149.13182050916885L217.03591208333333,152.7757498847114L218.11034729166664,155.93614434136282L219.1847825,155.5179968939887L220.25921770833332,150.07875637478298L221.33365291666664,158.70267995198566L222.40808812499998,157.90850660536023L223.48252333333332,156.08865119086374L224.55695854166666,158.59076063368053L225.63139374999997,159.63497873942055L226.70582895833334,160.85183766682945L227.78026416666665,160.22653401692708L228.85469937499997,163.12103220621742L229.92913458333334,161.64243164062498L231.00356979166665,165.4033937242296L232.078005,165.38754221598305L233.15244020833333,167.53593292236326L234.22687541666667,165.05453270806208L235.30131062499999,169.06240759955512L236.3757458333333,167.53606075710718L237.45018104166667,167.60112864176432L238.52461624999998,168.90625745985244L239.59905145833332,171.09338209364148L240.67348666666666,167.60534718831383L241.74792187499997,172.79396769205727L242.82235708333332,174.07889862060546L243.89679229166666,175.76580590142146L244.9712275,176.38689100477433L246.0456627083333,170.81483018663192L247.12009791666668,174.158347913954L248.194533125,170.66609446207684L249.2689683333333,169.61868048773874L250.34340354166665,180.8055628458659L251.41783875,181.22728966606985L252.49227395833333,177.77191653781466L253.56670916666664,181.05011071099176L254.641144375,183.27954864501953L255.71557958333332,181.48621893988718L256.79001479166664,184.20577528211805L257.86445,178.5111848619249L258.9388852083333,183.7634031507704L260.01332041666666,186.50999654134114L261.087755625,185.80057762993704L262.16219083333334,189.02955542670355L263.2366260416666,189.63670654296874L264.31106124999997,177.16687469482423L265.3854964583333,187.65699378119575L266.45993166666665,191.21239759657118L267.534366875,190.91492614746096L268.60880208333333,186.96131710476345L269.68323729166667,191.54502360026038L270.75767249999996,190.32432963053384L271.83210770833335,193.2872833251953L272.90654291666664,193.82508409288198L273.980978125,196.80165218777125L275.0554133333333,195.5270758734809L276.12984854166666,198.39185248480902L277.20428375,195.366259765625L278.2787189583333,195.3014475504557L279.3531541666667,196.31735026041667L280.42758937499997,200.48361239963106L281.5020245833333,203.67040473090276L282.57645979166665,202.87942725287542L283.650895,203.41294555664064L284.72533020833333,202.80854288736975L285.7997654166667,204.0932181464301L286.874200625,200.8592547946506L287.9486358333333,206.40574866400823L289.02307104166664,202.37850680881076L290.09750625,207.50972951253254L291.1719414583333,208.1226331922743L292.24637666666666,208.7125266181098L293.320811875,208.1436620076497L294.39524708333335,212.86082797580298L295.46968229166663,213.69750637478296L296.5441175,213.8250215318468L297.6185527083333,213.5674345228407L298.69298791666665,215.60761311848955L299.767423125,215.01337331136068L300.84185833333333,215.86283518473306L301.9162935416666,213.10256347656252L302.99072874999996,218.48012373182507L304.0651639583333,221.7930889553494L305.13959916666664,214.03594885932074L306.214034375,215.7052149454753L307.2884695833333,220.2317153930664L308.36290479166667,219.34614020453557L309.43733999999995,219.67697652180993L310.51177520833335,220.60895572238496L311.58621041666663,221.77269931369358L312.660645625,222.8029834323459L313.7350808333333,226.68411017523874L314.80951604166665,222.20337456597224L315.88395125,226.70859052870009L316.9583864583333,223.37325422498918L318.0328216666667,228.41582353379988L319.10725687499996,227.29854787190754L320.1816920833333,228.68651360405818L321.25612729166664,229.09635179307725L322.3305625,227.30091281467014L323.4049977083333,226.47810448540582L324.4794329166666,231.71696404351133L325.553868125,234.43076782226564L326.62830333333335,223.18859693739148L327.70273854166663,232.5051930745443L328.77717375,229.59605780707466L329.8516089583334,228.6748167249891L330.92604416666666,233.75145399305552L332.000479375,231.89049970838755L333.07491458333334,236.93479478624135L334.1493497916666,241.48021477593318L335.223785,231.90967491997617L336.2982202083333,220.91269107394749L337.37265541666665,243.35248243543833L338.447090625,226.93888481987847L339.52152583333327,233.2367273966471L340.59596104166667,236.11236996120874L341.67039625,236.39309505886501L342.7448314583333,239.5068937513563L343.81926666666664,246.04596048990885L344.893701875,242.67553354899087L345.9681370833333,247.08129408094618L347.04257229166666,242.11587304009333L348.1170075,245.506881374783L349.1914427083333,246.85898946126304L350.2658779166666,249.19657558865015L351.340313125,248.4223444620768L352.4147483333333,249.33629896375868L353.48918354166665,244.78467898898657L354.56361875,252.91631096733943L355.6380539583333,244.06727040608723L356.71248916666667,251.29479115804037L357.786924375,246.92194807264536L358.8613595833333,245.48099483913848L359.93579479166664,252.72590111626516L361.01023000000004,254.7208262125651L362.0846652083333,257.40618676079646L363.15910041666666,252.27266303168403L364.23353562499994,257.361764187283L365.3079708333333,259.4490498860677L366.3824060416667,259.4983940972222L367.45684124999997,256.87164577907987L368.5312764583333,262.01590762668184L369.60571166666665,260.2472500271267L370.68014687499993,262.2207628038194L371.75458208333333,251.33991682264536L372.8290172916667,259.7823150634766L373.90345249999996,265.30215538872613L374.9778877083333,264.29302792019314L376.0523229166667,260.0140794542101L377.126758125,266.75800136990017L378.2011933333333,267.282187737359L379.27562854166666,267.2571321275499L380.35006374999995,268.00611589219835L381.42449895833334,268.3457728068034L382.4989341666667,269.23518303765195L383.57336937499997,268.3425769382053L384.6478045833333,263.0301484849718L385.7222397916667,260.88642374674475L386.796675,268.886897277832L387.87111020833333,267.6482425265842L388.9455454166667,274.15292171902126L390.01998062499996,273.636213684082L391.0944158333333,274.51923217773435L392.16885104166664,276.13404066297744L393.24328625,269.76787041558157L394.3177214583333,266.2480685763889L395.3921566666666,274.21588033040365L396.46659187499995,278.8082795884874L397.54102708333335,277.7784428914388L398.61546229166663,274.00348290337456L399.6898975,268.91514875623915L400.7643327083333,277.79359130859376L401.8387679166666,277.5943608601888L402.913203125,271.0783682929145L403.98763833333334,279.4728924221463L405.0620735416666,273.6007395426432L406.13650874999996,269.26260359022353L407.21094395833336,280.0613796657986L408.28537916666664,284.20079650878904L409.359814375,280.0077529907227L410.4342495833333,276.5320541381836L411.5086847916666,282.82708435058595L412.58312,286.07683529324004L413.65755520833335,284.22911190456813L414.73199041666663,287.2271562364366L415.806425625,289.6233545939128L416.88086083333326,287.9101772732205L417.95529604166666,282.67796512179905L419.02973125,290.9642132229275L420.1041664583333,281.7447714911567L421.1786016666666,289.7121997409397L422.253036875,292.86773647732207L423.3274720833333,288.62490132649737L424.40190729166665,291.80836995442706L425.4763425,293.6892664591471L426.55077770833327,290.1109163072374L427.62521291666667,282.40133073594836L428.699648125,288.3316484239366L429.7740833333333,295.71026984320747L430.84851854166664,295.35904388427736L431.92295375000003,296.98177812364366L432.9973889583333,292.3173439873589L434.07182416666666,298.09234246148003L435.146259375,296.338641526964L436.2206945833333,290.84686092800564L437.2951297916666,297.94552425808376L438.369565,297.913309902615L439.4440002083333,298.76015116373696L440.51843541666665,302.3351776123047L441.592870625,296.19674496120876L442.6673058333333,304.5846216837565L443.74174104166667,300.0709686279297L444.81617624999996,296.8786154852973L445.8906114583333,305.1416935390896L446.96504666666664,298.84337158203124L448.0394818749999,299.35662807888457L449.1139170833333,306.1001664903429L450.18835229166666,303.1859817504883L451.26278749999994,295.3920252482096L452.3372227083333,302.4963133070204L453.4116579166667,306.6520610385471L454.48609312499997,306.4617790222168L455.5605283333333,305.11002248128256L456.63496354166665,308.9522235446506L457.70939874999993,307.29826566908093L458.78383395833333,308.2129552205404L459.8582691666667,310.43114369710287L460.93270437499996,309.89915941026476L462.0071395833333,307.6201215955946L463.0815747916667,308.67332009209525L464.15601,308.83921763102217L465.2304452083333,310.53242077297637L466.30488041666666,313.68856472439234L467.37931562499995,309.30239486694336L468.45375083333334,310.21980090671116L469.5281860416667,307.46199001736113L470.60262124999997,312.25774239434134L471.6770564583333,315.17812711927627L472.7514916666666,314.9032824198405L473.825926875,317.54585028754343L474.90036208333333,317.9685678270128L475.9747972916666,317.29238594902887L477.04923249999996,312.3500390794542L478.12366770833336,303.93742633395726L479.19810291666664,313.40560251871744L480.272538125,320.21472015380857L481.3469733333333,315.33226386176216L482.4214085416666,308.5205256144206L483.49584374999995,319.4651291741265L484.57027895833335,319.6850368923611L485.64471416666663,318.5234025743273L486.719149375,319.23895755343966L487.7935845833333,321.36491326226127L488.8680197916666,314.9226493835449L489.942455,320.4774844699436L491.01689020833334,324.8501997205946L492.0913254166666,318.664372338189L493.16576062499996,321.24005067613393L494.24019583333336,319.3704355875651L495.31463104166664,315.95715204874676L496.38906625,331.4860693189833L497.46350145833327,305.6269222683377L498.5379366666666,318.52321082221135L499.612371875,317.92603081597224L500.6868070833333,312.2870165506999L501.76124229166663,320.6197325812446L502.8356775,308.46232884724935L503.91011270833326,322.814623175727L504.98454791666666,318.33129891289605L506.058983125,323.42768664889866L507.1334183333333,300.144026184082L508.2078535416666,327.3174102783203L509.28228875,327.2553465101454L510.3567239583333,328.2520740085178L511.43115916666665,325.0332910325792L512.505594375,331.64011018541123L513.5800295833333,331.6122741699219L514.6544647916667,329.033240169949L515.7289,334.1015042622884L516.8033352083332,334.6659905327691L517.8777704166666,335.9962388780382L518.952205625,331.8316705491808L520.0266408333333,332.1114049275716L521.1010760416666,337.1067712571886L522.17551125,335.8959525214301L523.2499464583333,334.01237148708765L524.3243816666667,335.5289709303114L525.398816875,339.60447040134005L526.4732520833333,336.1697106255425L527.5476872916666,334.580788675944L528.6221224999999,335.6672242058648L529.6965577083333,334.4020437452528L530.7709929166666,340.71982854207357L531.8454281249999,339.99903233846027L532.9198633333333,339.4945644802517L533.9942985416667,337.09075995551217L535.06873375,336.54554477267794L536.1431689583333,342.15298385620116L537.2176041666667,344.01118969387477L538.292039375,335.23082834879557L539.3664745833333,342.6291043599447L540.4409097916666,341.47756898668075L541.5153449999999,341.19556554158527L542.5897802083333,343.490327029758L543.6642154166667,335.27275814480254L544.738650625,340.02555804782446L545.8130858333333,336.79990395439995L546.8875210416667,342.275417582194L547.96195625,337.5818690829807L549.0363914583334,344.8283093770345L550.1108266666666,344.9733698527018L551.1852618749999,337.42830759684244L552.2596970833333,346.00883127848306L553.3341322916666,323.74510031806096L554.4085675,338.88370615641276L555.4830027083333,348.2867185804579L556.5574379166666,333.3633225335015L557.631873125,344.81370425754125L558.7063083333334,345.4208873324924L559.7807435416667,345.85820999145506L560.8551787499999,346.6629297044542L561.9296139583333,352.98100212944877L563.0040491666666,349.28692957560224L564.078484375,345.6399641248915L565.1529195833333,351.89111506144206L566.2273547916666,334.3863200717502L567.30179,345.1865342881944L568.3762252083334,345.7390680101183L569.4506604166667,351.49773559570315L570.525095625,353.18735936482744L571.5995308333333,354.87659962972003L572.6739660416666,354.83089870876734L573.74840125,352.19232567681206L574.8228364583333,356.0797802395291L575.8972716666666,351.76075558132595L576.971706875,357.6154909769694L578.0461420833333,344.92098956637915L579.1205772916667,354.5502055697971L580.1950125,357.56704160902234L581.2694477083332,350.1020358615451L582.3438829166666,353.89326282077366L583.418318125,360.5830147637261L584.4927533333333,360.2164486355252L585.5671885416666,358.5273362053765L586.64162375,362.909383392334L587.7160589583333,359.96697913275824L588.7904941666667,361.0772558424208L589.864929375,363.6012889438205" style="fill: none;" fill="none"></path></g></g></g></g></g></g><g transform="translate(41, 377)" clip-path="url(#clip_1)"><clipPath id="clip_1"><rect width="644" height="22"></rect></clipPath><g><g><line x1="0" y1="0" x2="0" y2="5" style="visibility: inherit;" fill="rgb(0, 0, 0)" stroke="rgb(204, 204, 204)" stroke-width="1px"></line><line x1="53.72176041666666" y1="0" x2="53.72176041666666" y2="5" style="visibility: inherit;" fill="rgb(0, 0, 0)" stroke="rgb(204, 204, 204)" stroke-width="1px"></line><line x1="107.44352083333332" y1="0" x2="107.44352083333332" y2="5" style="visibility: inherit;" fill="rgb(0, 0, 0)" stroke="rgb(204, 204, 204)" stroke-width="1px"></line><line x1="161.16528125" y1="0" x2="161.16528125" y2="5" style="visibility: inherit;" fill="rgb(0, 0, 0)" stroke="rgb(204, 204, 204)" stroke-width="1px"></line><line x1="214.88704166666665" y1="0" x2="214.88704166666665" y2="5" style="visibility: inherit;" fill="rgb(0, 0, 0)" stroke="rgb(204, 204, 204)" stroke-width="1px"></line><line x1="268.60880208333333" y1="0" x2="268.60880208333333" y2="5" style="visibility: inherit;" fill="rgb(0, 0, 0)" stroke="rgb(204, 204, 204)" stroke-width="1px"></line><line x1="322.3305625" y1="0" x2="322.3305625" y2="5" style="visibility: inherit;" fill="rgb(0, 0, 0)" stroke="rgb(204, 204, 204)" stroke-width="1px"></line><line x1="376.0523229166667" y1="0" x2="376.0523229166667" y2="5" style="visibility: inherit;" fill="rgb(0, 0, 0)" stroke="rgb(204, 204, 204)" stroke-width="1px"></line><line x1="429.7740833333333" y1="0" x2="429.7740833333333" y2="5" style="visibility: inherit;" fill="rgb(0, 0, 0)" stroke="rgb(204, 204, 204)" stroke-width="1px"></line><line x1="483.49584374999995" y1="0" x2="483.49584374999995" y2="5" style="visibility: inherit;" fill="rgb(0, 0, 0)" stroke="rgb(204, 204, 204)" stroke-width="1px"></line><line x1="537.2176041666667" y1="0" x2="537.2176041666667" y2="5" style="visibility: inherit;" fill="rgb(0, 0, 0)" stroke="rgb(204, 204, 204)" stroke-width="1px"></line><line x1="590.9393645833333" y1="0" x2="590.9393645833333" y2="5" style="visibility: inherit;" fill="rgb(0, 0, 0)" stroke="rgb(204, 204, 204)" stroke-width="1px"></line><line x1="644.661125" y1="0" x2="644.661125" y2="5" style="visibility: inherit;" fill="rgb(0, 0, 0)" stroke="rgb(204, 204, 204)" stroke-width="1px"></line></g><g transform="translate(0, 8)"><text x="0" y="0" dx="0em" dy="0.95em" style="text-anchor: middle; visibility: hidden; font-family: Roboto, sans-serif; font-size: 12px; font-weight: 200;" fill="rgb(255, 255, 255)" stroke="none" stroke-width="1px">-50</text><text x="53.72176041666666" y="0" dx="0em" dy="0.95em" style="text-anchor: middle; visibility: inherit; font-family: Roboto, sans-serif; font-size: 12px; font-weight: 200;" fill="rgb(255, 255, 255)" stroke="none" stroke-width="1px">0</text><text x="107.44352083333332" y="0" dx="0em" dy="0.95em" style="text-anchor: middle; visibility: inherit; font-family: Roboto, sans-serif; font-size: 12px; font-weight: 200;" fill="rgb(255, 255, 255)" stroke="none" stroke-width="1px">50</text><text x="161.16528125" y="0" dx="0em" dy="0.95em" style="text-anchor: middle; visibility: inherit; font-family: Roboto, sans-serif; font-size: 12px; font-weight: 200;" fill="rgb(255, 255, 255)" stroke="none" stroke-width="1px">100</text><text x="214.88704166666665" y="0" dx="0em" dy="0.95em" style="text-anchor: middle; visibility: inherit; font-family: Roboto, sans-serif; font-size: 12px; font-weight: 200;" fill="rgb(255, 255, 255)" stroke="none" stroke-width="1px">150</text><text x="268.60880208333333" y="0" dx="0em" dy="0.95em" style="text-anchor: middle; visibility: inherit; font-family: Roboto, sans-serif; font-size: 12px; font-weight: 200;" fill="rgb(255, 255, 255)" stroke="none" stroke-width="1px">200</text><text x="322.3305625" y="0" dx="0em" dy="0.95em" style="text-anchor: middle; visibility: inherit; font-family: Roboto, sans-serif; font-size: 12px; font-weight: 200;" fill="rgb(255, 255, 255)" stroke="none" stroke-width="1px">250</text><text x="376.0523229166667" y="0" dx="0em" dy="0.95em" style="text-anchor: middle; visibility: inherit; font-family: Roboto, sans-serif; font-size: 12px; font-weight: 200;" fill="rgb(255, 255, 255)" stroke="none" stroke-width="1px">300</text><text x="429.7740833333333" y="0" dx="0em" dy="0.95em" style="text-anchor: middle; visibility: inherit; font-family: Roboto, sans-serif; font-size: 12px; font-weight: 200;" fill="rgb(255, 255, 255)" stroke="none" stroke-width="1px">350</text><text x="483.49584374999995" y="0" dx="0em" dy="0.95em" style="text-anchor: middle; visibility: inherit; font-family: Roboto, sans-serif; font-size: 12px; font-weight: 200;" fill="rgb(255, 255, 255)" stroke="none" stroke-width="1px">400</text><text x="537.2176041666667" y="0" dx="0em" dy="0.95em" style="text-anchor: middle; visibility: inherit; font-family: Roboto, sans-serif; font-size: 12px; font-weight: 200;" fill="rgb(255, 255, 255)" stroke="none" stroke-width="1px">450</text><text x="590.9393645833333" y="0" dx="0em" dy="0.95em" style="text-anchor: middle; visibility: inherit; font-family: Roboto, sans-serif; font-size: 12px; font-weight: 200;" fill="rgb(255, 255, 255)" stroke="none" stroke-width="1px">500</text><text x="644.661125" y="0" dx="0em" dy="0.95em" style="text-anchor: middle; visibility: hidden; font-family: Roboto, sans-serif; font-size: 12px; font-weight: 200;" fill="rgb(255, 255, 255)" stroke="none" stroke-width="1px">550</text></g><line x1="0" y1="0" x2="644.661125" y2="0" fill="rgb(0, 0, 0)" stroke="rgb(204, 204, 204)" stroke-width="1px"></line></g></g></g></g></svg>