<svg viewBox="0 0 671.6666259765625 400" xmlns="http://www.w3.org/2000/svg"><g><g><g><g><g><line x1="72.34375" y1="377" x2="67.34375" y2="377" style="visibility: inherit;" fill="rgb(0, 0, 0)" stroke="rgb(204, 204, 204)" stroke-width="1px"></line><line x1="72.34375" y1="351.8666666666667" x2="67.34375" y2="351.8666666666667" style="visibility: inherit;" fill="rgb(0, 0, 0)" stroke="rgb(204, 204, 204)" stroke-width="1px"></line><line x1="72.34375" y1="326.73333333333335" x2="67.34375" y2="326.73333333333335" style="visibility: inherit;" fill="rgb(0, 0, 0)" stroke="rgb(204, 204, 204)" stroke-width="1px"></line><line x1="72.34375" y1="301.6" x2="67.34375" y2="301.6" style="visibility: inherit;" fill="rgb(0, 0, 0)" stroke="rgb(204, 204, 204)" stroke-width="1px"></line><line x1="72.34375" y1="276.4666666666667" x2="67.34375" y2="276.4666666666667" style="visibility: inherit;" fill="rgb(0, 0, 0)" stroke="rgb(204, 204, 204)" stroke-width="1px"></line><line x1="72.34375" y1="251.33333333333337" x2="67.34375" y2="251.33333333333337" style="visibility: inherit;" fill="rgb(0, 0, 0)" stroke="rgb(204, 204, 204)" stroke-width="1px"></line><line x1="72.34375" y1="226.2" x2="67.34375" y2="226.2" style="visibility: inherit;" fill="rgb(0, 0, 0)" stroke="rgb(204, 204, 204)" stroke-width="1px"></line><line x1="72.34375" y1="201.06666666666666" x2="67.34375" y2="201.06666666666666" style="visibility: inherit;" fill="rgb(0, 0, 0)" stroke="rgb(204, 204, 204)" stroke-width="1px"></line><line x1="72.34375" y1="175.93333333333334" x2="67.34375" y2="175.93333333333334" style="visibility: inherit;" fill="rgb(0, 0, 0)" stroke="rgb(204, 204, 204)" stroke-width="1px"></line><line x1="72.34375" y1="150.8" x2="67.34375" y2="150.8" style="visibility: inherit;" fill="rgb(0, 0, 0)" stroke="rgb(204, 204, 204)" stroke-width="1px"></line><line x1="72.34375" y1="125.66666666666669" x2="67.34375" y2="125.66666666666669" style="visibility: inherit;" fill="rgb(0, 0, 0)" stroke="rgb(204, 204, 204)" stroke-width="1px"></line><line x1="72.34375" y1="100.53333333333336" x2="67.34375" y2="100.53333333333336" style="visibility: inherit;" fill="rgb(0, 0, 0)" stroke="rgb(204, 204, 204)" stroke-width="1px"></line><line x1="72.34375" y1="75.39999999999998" x2="67.34375" y2="75.39999999999998" style="visibility: inherit;" fill="rgb(0, 0, 0)" stroke="rgb(204, 204, 204)" stroke-width="1px"></line><line x1="72.34375" y1="50.26666666666666" x2="67.34375" y2="50.26666666666666" style="visibility: inherit;" fill="rgb(0, 0, 0)" stroke="rgb(204, 204, 204)" stroke-width="1px"></line><line x1="72.34375" y1="25.13333333333333" x2="67.34375" y2="25.13333333333333" style="visibility: inherit;" fill="rgb(0, 0, 0)" stroke="rgb(204, 204, 204)" stroke-width="1px"></line><line x1="72.34375" y1="0" x2="67.34375" y2="0" style="visibility: inherit;" fill="rgb(0, 0, 0)" stroke="rgb(204, 204, 204)" stroke-width="1px"></line></g><g transform="translate(62.34375, 0)"><text x="0" y="377" dx="0em" dy="0.3em" style="text-anchor: end; visibility: hidden; font-family: Roboto, sans-serif; font-size: 12px; font-weight: 200;" fill="rgb(255, 255, 255)" stroke="none" stroke-width="1px">0</text><text x="0" y="351.8666666666667" dx="0em" dy="0.3em" style="text-anchor: end; visibility: inherit; font-family: Roboto, sans-serif; font-size: 12px; font-weight: 200;" fill="rgb(255, 255, 255)" stroke="none" stroke-width="1px">200</text><text x="0" y="326.73333333333335" dx="0em" dy="0.3em" style="text-anchor: end; visibility: inherit; font-family: Roboto, sans-serif; font-size: 12px; font-weight: 200;" fill="rgb(255, 255, 255)" stroke="none" stroke-width="1px">400</text><text x="0" y="301.6" dx="0em" dy="0.3em" style="text-anchor: end; visibility: inherit; font-family: Roboto, sans-serif; font-size: 12px; font-weight: 200;" fill="rgb(255, 255, 255)" stroke="none" stroke-width="1px">600</text><text x="0" y="276.4666666666667" dx="0em" dy="0.3em" style="text-anchor: end; visibility: inherit; font-family: Roboto, sans-serif; font-size: 12px; font-weight: 200;" fill="rgb(255, 255, 255)" stroke="none" stroke-width="1px">800</text><text x="0" y="251.33333333333337" dx="0em" dy="0.3em" style="text-anchor: end; visibility: inherit; font-family: Roboto, sans-serif; font-size: 12px; font-weight: 200;" fill="rgb(255, 255, 255)" stroke="none" stroke-width="1px">1e+3</text><text x="0" y="226.2" dx="0em" dy="0.3em" style="text-anchor: end; visibility: inherit; font-family: Roboto, sans-serif; font-size: 12px; font-weight: 200;" fill="rgb(255, 255, 255)" stroke="none" stroke-width="1px">1.2e+3</text><text x="0" y="201.06666666666666" dx="0em" dy="0.3em" style="text-anchor: end; visibility: inherit; font-family: Roboto, sans-serif; font-size: 12px; font-weight: 200;" fill="rgb(255, 255, 255)" stroke="none" stroke-width="1px">1.4e+3</text><text x="0" y="175.93333333333334" dx="0em" dy="0.3em" style="text-anchor: end; visibility: inherit; font-family: Roboto, sans-serif; font-size: 12px; font-weight: 200;" fill="rgb(255, 255, 255)" stroke="none" stroke-width="1px">1.6e+3</text><text x="0" y="150.8" dx="0em" dy="0.3em" style="text-anchor: end; visibility: inherit; font-family: Roboto, sans-serif; font-size: 12px; font-weight: 200;" fill="rgb(255, 255, 255)" stroke="none" stroke-width="1px">1.8e+3</text><text x="0" y="125.66666666666669" dx="0em" dy="0.3em" style="text-anchor: end; visibility: inherit; font-family: Roboto, sans-serif; font-size: 12px; font-weight: 200;" fill="rgb(255, 255, 255)" stroke="none" stroke-width="1px">2e+3</text><text x="0" y="100.53333333333336" dx="0em" dy="0.3em" style="text-anchor: end; visibility: inherit; font-family: Roboto, sans-serif; font-size: 12px; font-weight: 200;" fill="rgb(255, 255, 255)" stroke="none" stroke-width="1px">2.2e+3</text><text x="0" y="75.39999999999998" dx="0em" dy="0.3em" style="text-anchor: end; visibility: inherit; font-family: Roboto, sans-serif; font-size: 12px; font-weight: 200;" fill="rgb(255, 255, 255)" stroke="none" stroke-width="1px">2.4e+3</text><text x="0" y="50.26666666666666" dx="0em" dy="0.3em" style="text-anchor: end; visibility: inherit; font-family: Roboto, sans-serif; font-size: 12px; font-weight: 200;" fill="rgb(255, 255, 255)" stroke="none" stroke-width="1px">2.6e+3</text><text x="0" y="25.13333333333333" dx="0em" dy="0.3em" style="text-anchor: end; visibility: inherit; font-family: Roboto, sans-serif; font-size: 12px; font-weight: 200;" fill="rgb(255, 255, 255)" stroke="none" stroke-width="1px">2.8e+3</text><text x="0" y="0" dx="0em" dy="0.3em" style="text-anchor: end; visibility: hidden; font-family: Roboto, sans-serif; font-size: 12px; font-weight: 200;" fill="rgb(255, 255, 255)" stroke="none" stroke-width="1px">3e+3</text></g><line x1="72.34375" y1="0" x2="72.34375" y2="377" fill="rgb(0, 0, 0)" stroke="rgb(204, 204, 204)" stroke-width="1px"></line></g></g><g transform="translate(72, 0)" clip-path="url(#clip_0)"><clipPath id="clip_0"><rect width="599" height="376"></rect></clipPath><g><g><g><line x1="0" y1="0" x2="0" y2="377" fill="rgb(0, 0, 0)" stroke="rgb(189, 189, 189)" stroke-width="1px" opacity="0.25"></line><line x1="42.80880357142857" y1="0" x2="42.80880357142857" y2="377" fill="rgb(0, 0, 0)" stroke="rgb(189, 189, 189)" stroke-width="1px" opacity="0.25"></line><line x1="85.61760714285714" y1="0" x2="85.61760714285714" y2="377" fill="rgb(0, 0, 0)" stroke="rgb(189, 189, 189)" stroke-width="1px" opacity="0.25"></line><line x1="128.4264107142857" y1="0" x2="128.4264107142857" y2="377" fill="rgb(0, 0, 0)" stroke="rgb(189, 189, 189)" stroke-width="1px" opacity="0.25"></line><line x1="171.23521428571428" y1="0" x2="171.23521428571428" y2="377" fill="rgb(0, 0, 0)" stroke="rgb(189, 189, 189)" stroke-width="1px" opacity="0.25"></line><line x1="214.04401785714288" y1="0" x2="214.04401785714288" y2="377" fill="rgb(0, 0, 0)" stroke="rgb(189, 189, 189)" stroke-width="1px" opacity="0.25"></line><line x1="256.8528214285714" y1="0" x2="256.8528214285714" y2="377" fill="rgb(0, 0, 0)" stroke="rgb(189, 189, 189)" stroke-width="1px" opacity="0.25"></line><line x1="299.661625" y1="0" x2="299.661625" y2="377" fill="rgb(0, 0, 0)" stroke="rgb(189, 189, 189)" stroke-width="1px" opacity="0.25"></line><line x1="342.47042857142856" y1="0" x2="342.47042857142856" y2="377" fill="rgb(0, 0, 0)" stroke="rgb(189, 189, 189)" stroke-width="1px" opacity="0.25"></line><line x1="385.2792321428572" y1="0" x2="385.2792321428572" y2="377" fill="rgb(0, 0, 0)" stroke="rgb(189, 189, 189)" stroke-width="1px" opacity="0.25"></line><line x1="428.08803571428575" y1="0" x2="428.08803571428575" y2="377" fill="rgb(0, 0, 0)" stroke="rgb(189, 189, 189)" stroke-width="1px" opacity="0.25"></line><line x1="470.8968392857143" y1="0" x2="470.8968392857143" y2="377" fill="rgb(0, 0, 0)" stroke="rgb(189, 189, 189)" stroke-width="1px" opacity="0.25"></line><line x1="513.7056428571428" y1="0" x2="513.7056428571428" y2="377" fill="rgb(0, 0, 0)" stroke="rgb(189, 189, 189)" stroke-width="1px" opacity="0.25"></line><line x1="556.5144464285714" y1="0" x2="556.5144464285714" y2="377" fill="rgb(0, 0, 0)" stroke="rgb(189, 189, 189)" stroke-width="1px" opacity="0.25"></line><line x1="599.32325" y1="0" x2="599.32325" y2="377" fill="rgb(0, 0, 0)" stroke="rgb(189, 189, 189)" stroke-width="1px" opacity="0.25"></line></g><g><line x1="0" y1="377" x2="599.32325" y2="377" fill="rgb(0, 0, 0)" stroke="rgb(189, 189, 189)" stroke-width="1px" opacity="0.25"></line><line x1="0" y1="351.8666666666667" x2="599.32325" y2="351.8666666666667" fill="rgb(0, 0, 0)" stroke="rgb(189, 189, 189)" stroke-width="1px" opacity="0.25"></line><line x1="0" y1="326.73333333333335" x2="599.32325" y2="326.73333333333335" fill="rgb(0, 0, 0)" stroke="rgb(189, 189, 189)" stroke-width="1px" opacity="0.25"></line><line x1="0" y1="301.6" x2="599.32325" y2="301.6" fill="rgb(0, 0, 0)" stroke="rgb(189, 189, 189)" stroke-width="1px" opacity="0.25"></line><line x1="0" y1="276.4666666666667" x2="599.32325" y2="276.4666666666667" fill="rgb(0, 0, 0)" stroke="rgb(189, 189, 189)" stroke-width="1px" opacity="0.25"></line><line x1="0" y1="251.33333333333337" x2="599.32325" y2="251.33333333333337" fill="rgb(0, 0, 0)" stroke="rgb(189, 189, 189)" stroke-width="1px" opacity="0.25"></line><line x1="0" y1="226.2" x2="599.32325" y2="226.2" fill="rgb(0, 0, 0)" stroke="rgb(189, 189, 189)" stroke-width="1px" opacity="0.25"></line><line x1="0" y1="201.06666666666666" x2="599.32325" y2="201.06666666666666" fill="rgb(0, 0, 0)" stroke="rgb(189, 189, 189)" stroke-width="1px" opacity="0.25"></line><line x1="0" y1="175.93333333333334" x2="599.32325" y2="175.93333333333334" fill="rgb(0, 0, 0)" stroke="rgb(189, 189, 189)" stroke-width="1px" opacity="0.25"></line><line x1="0" y1="150.8" x2="599.32325" y2="150.8" fill="rgb(0, 0, 0)" stroke="rgb(189, 189, 189)" stroke-width="1px" opacity="0.25"></line><line x1="0" y1="125.66666666666669" x2="599.32325" y2="125.66666666666669" fill="rgb(0, 0, 0)" stroke="rgb(189, 189, 189)" stroke-width="1px" opacity="0.25"></line><line x1="0" y1="100.53333333333336" x2="599.32325" y2="100.53333333333336" fill="rgb(0, 0, 0)" stroke="rgb(189, 189, 189)" stroke-width="1px" opacity="0.25"></line><line x1="0" y1="75.39999999999998" x2="599.32325" y2="75.39999999999998" fill="rgb(0, 0, 0)" stroke="rgb(189, 189, 189)" stroke-width="1px" opacity="0.25"></line><line x1="0" y1="50.26666666666666" x2="599.32325" y2="50.26666666666666" fill="rgb(0, 0, 0)" stroke="rgb(189, 189, 189)" stroke-width="1px" opacity="0.25"></line><line x1="0" y1="25.13333333333333" x2="599.32325" y2="25.13333333333333" fill="rgb(0, 0, 0)" stroke="rgb(189, 189, 189)" stroke-width="1px" opacity="0.25"></line><line x1="0" y1="0" x2="599.32325" y2="0" fill="rgb(0, 0, 0)" stroke="rgb(189, 189, 189)" stroke-width="1px" opacity="0.25"></line></g></g></g><g><g><line x1="0" y1="377" x2="599.32325" y2="377" fill="rgb(0, 0, 0)" stroke="rgb(153, 153, 153)" stroke-width="1.5px"></line></g></g><g><g><line x1="42.80880357142857" y1="0" x2="42.80880357142857" y2="377" fill="rgb(0, 0, 0)" stroke="rgb(153, 153, 153)" stroke-width="1.5px"></line></g></g><g><g><g><g><g><path stroke="rgb(51, 187, 238)" stroke-width="2px" d="M45.37733178571429,24.29180232747395L47.94586,24.386834676106787L50.51438821428572,24.500453674731624L53.08291642857143,24.643931965248267L55.65144464285715,24.82470096540316L58.21997285714286,25.03709596579687L60.78850107142857,25.279706109494708L63.35702928571429,25.55104882458348L65.92555750000001,25.857044602700068L68.49408571428572,26.200374752957494L71.06261392857144,26.589779364564304L73.63114214285714,27.02919913994371L76.19967035714286,27.524914807145702L78.76819857142857,28.059593857618413L81.33672678571429,28.618091144682253L83.90525500000001,29.2209363446076L86.47378321428572,29.87272154628847L89.04231142857144,30.574631362141115L91.61083964285714,31.31264201784941L94.17936785714286,32.1015801362664L96.74789607142857,32.96728559483319L99.31642428571429,33.96320546146066L101.88495250000001,35.083631995015054L104.45348071428572,36.285709665046895L107.02200892857144,37.52172107736702L109.59053714285714,38.74773223126085L112.15906535714286,39.977536984168594L114.72759357142857,41.202365390577825L117.29612178571428,42.480684581653826L119.86465000000001,43.72816681904893L122.43317821428572,44.99997672497152L125.00170642857144,46.48708179135736L127.57023464285714,48.146660059010394L130.13876285714286,49.98239784581475L132.70729107142859,51.969471423939815L135.27581928571428,54.02285130002245L137.84434750000003,56.09269790219807L140.41287571428572,58.07305706247436L142.98140392857144,59.89250211263191L145.54993214285716,61.73000817107703L148.11846035714285,63.7149519745508L150.6869885714286,65.76745897868695L153.2555167857143,67.8844468396463L155.824045,70.46945160032934L158.39257321428573,73.64858639021556L160.96110142857142,76.94192270022016L163.52962964285715,80.21366563197327L166.09815785714287,83.45646194436091L168.6666860714286,86.60473536978395L171.23521428571428,89.62476078569681L173.8037425,92.41383436856708L176.37227071428572,94.78024918885544L178.94079892857147,97.05103567868177L181.50932714285716,99.30323739028438L184.07785535714288,101.6866940943284L186.6463835714286,104.50359305165018L189.2149117857143,107.59302585052201L191.78344,110.70311902593862L194.35196821428573,113.72973850540721L196.92049642857143,116.70566629660385L199.48902464285715,119.77083239514992L202.05755285714287,122.92340643578791L204.6260810714286,126.50084773517074L207.19460928571428,130.26355888524304L209.7631375,134.12376692294274L212.33166571428572,137.77821106522396L214.90019392857147,141.58417860853544L217.46872214285716,145.80413029337652L220.03725035714288,150.219021177328L222.6057785714286,153.94559032683946L225.1743067857143,157.3160600554787L227.742835,161.49196666479764L230.31136321428573,165.9959726583838L232.87989142857143,170.09748559698343L235.44841964285715,173.35995402095048L238.01694785714287,176.28363870488795L240.5854760714286,179.5169915888182L243.15400428571428,183.67796529834303L245.7225325,188.63193419202668L248.29106071428575,194.04168434334096L250.85958892857144,199.75952907931187L253.42811714285716,205.13849877896737L255.99664535714288,210.03636367167726L258.5651735714286,214.0647868716262L261.1337017857143,217.91941100643925L263.70223000000004,221.21226276597292L266.2707582142857,224.00280679695356L268.8392864285714,226.1442720501773L271.40781464285715,227.80366609468973L273.97634285714287,229.14284254418362L276.5448710714286,230.8896767830206L279.1133992857143,233.22639449754672L281.6819275,234.70553095308532L284.25045571428575,235.50074477627828L286.81898392857147,236.91162917370966L289.3875121428572,239.67183365656953L291.95604035714285,243.3709662258428L294.5245685714286,247.7075026440343L297.0930967857143,251.63770213980604L299.661625,255.26224485159193L302.23015321428574,259.4492110466973L304.79868142857146,263.74303483928145L307.3672096428572,267.18709487817824L309.93573785714284,269.71918173973245L312.5042660714286,272.1571075057536L315.0727942857143,274.74172942858235L317.64132250000006,277.5297209823447L320.2098507142857,280.62535956694586L322.77837892857144,283.7244772636051L325.34690714285716,286.7016817032151L327.9154353571429,289.2583017628145L330.48396357142855,291.6915820179751L333.0524917857143,294.2352012046002L335.62102000000004,297.419841368919L338.1895482142857,301.8401605749321L340.7580764285715,307.2326539743538L343.32660464285715,312.5890726132907L345.89513285714287,317.17609751491455L348.4636610714286,320.757246114743L351.0321892857143,323.1549982629213L353.6007175,325.2729674717502L356.16924571428575,326.8658986878027L358.7377739285714,328.3973340857285L361.3063021428572,329.6423441973681L363.87483035714286,330.5148052366826L366.4433585714286,331.19006516512155L369.01188678571435,331.6665866576667L371.580415,331.9221981168331L374.14894321428574,332.09611008103735L376.71747142857146,332.4157964197162L379.2859996428572,332.4726837641018L381.85452785714284,332.9203349776994L384.4230560714286,333.3006588967759L386.9915842857143,333.4978906505656L389.56011250000006,333.44122291572995L392.1286407142857,332.9636183278885L394.69716892857144,334.1030117478724L397.26569714285716,336.2687428560151L399.8342253571429,338.7100715070661L402.40275357142855,340.6814992641029L404.9712817857143,342.0508248799136L407.53981000000005,343.76898104448463L410.1083382142857,344.96333114988414L412.6768664285715,346.03567360244676L415.24539464285715,346.10270979704745L417.81392285714287,345.79396644015884L420.3824510714286,345.8176903479006L422.9509792857143,345.7336302569175L425.5195075,344.0251566087403L428.08803571428575,341.4439242305437L430.6565639285714,336.82319318578715L433.2250921428572,332.227800941583L435.79362035714286,330.18659100603054L438.3621485714286,330.94448834792166L440.93067678571435,332.96152635022435L443.499205,334.56856558227L446.06773321428574,335.2930682963021L448.63626142857146,336.11790724568493L451.2047896428572,338.01816954272346L453.77331785714284,340.4970190067213L456.3418460714286,341.8242985052698L458.9103742857143,343.05217826291124L461.47890250000006,344.5872407407057L464.0474307142857,346.325557192633L466.61595892857144,347.7216133316931L469.1844871428571,347.47587440567276L471.7530153571429,346.4810255263789L474.3215435714286,345.49976365567113L476.8900717857143,344.39949932702893L479.45860000000005,342.97724112046865L482.0271282142857,341.14498397485283L484.5956564285715,340.01190125730756L487.16418464285715,339.75615668456027L489.7327128571429,340.88167200959685L492.3012410714286,343.30763813821255L494.8697692857143,346.97171820804147L497.4382975,350.58525851475L500.00682571428575,353.7163595237263L502.5753539285714,354.3840610308048L505.1438821428572,353.52888505598287L507.7124103571429,351.2358918449504L510.2809385714286,347.63464693965255L512.8494667857143,345.08144477593345L515.417995,344.7098692215171L517.9865232142857,345.6994453834148L520.5550514285715,346.87314995709966L523.1235796428572,348.01261318796423L525.6921078571429,348.9322965626809L528.2606360714286,349.9268568540311L530.8291642857143,350.92239677843423L533.3976925000001,351.71523962752605L535.9662207142857,351.9904853740091L538.5347489285715,352.14332770511834L541.1032771428571,352.4446243025144L543.6718053571428,352.57639118714013L546.2403335714287,351.34450116125873L548.8088617857143,349.6420628081647L551.3773900000001,348.08912966081033" style="fill: none;" fill="none"></path></g></g></g></g><g opacity="0.2"><g><g><g><path stroke="rgb(51, 187, 238)" stroke-width="2px" d="M45.37733178571429,24.29180232747395L47.94586,24.443854085286453L50.51438821428572,24.60952791341147L53.08291642857143,24.812662434895834L55.65144464285715,25.060712972005224L58.21997285714286,25.33091471354165L60.78850107142857,25.626642496744793L63.35702928571429,25.946669108072903L65.92555750000001,26.308328938802084L68.49408571428572,26.710180013020832L71.06261392857144,27.170354410807285L73.63114214285714,27.685937500000016L76.19967035714286,28.26686971028646L78.76819857142857,28.860564941406242L81.33672678571429,29.455180582682292L83.90525500000001,30.124778971354175L86.47378321428572,30.85012353515624L89.04231142857144,31.627317871093737L91.61083964285714,32.419545572916654L94.17936785714286,33.28491520182291L96.74789607142857,34.26579630533855L99.31642428571429,35.457052490234396L101.88495250000001,36.764249674479174L104.45348071428572,38.08881193033855L107.02200892857144,39.3757294108073L109.59053714285714,40.58674373372395L112.15906535714286,41.82224096679689L114.72759357142857,43.03960611979166L117.29612178571428,44.39816219075522L119.86465000000001,45.599389485677094L122.43317821428572,46.90769116210939L125.00170642857144,48.7177390950521L127.57023464285714,50.63602726236977L130.13876285714286,52.73600439453125L132.70729107142859,54.950081705729154L135.27581928571428,57.10292106119794L137.84434750000003,59.197467773437516L140.41287571428572,61.04359578450522L142.98140392857144,62.621669677734396L145.54993214285716,64.48626725260418L148.11846035714285,66.69236767578126L150.6869885714286,68.84621948242186L153.2555167857143,71.05992862955728L155.824045,74.34695874023437L158.39257321428573,78.41728857421874L160.96110142857142,81.88192716471353L163.52962964285715,85.12128002929687L166.09815785714287,88.3206564127604L168.6666860714286,91.32714550781252L171.23521428571428,94.15479890950519L173.8037425,96.59744474283853L176.37227071428572,98.32987141927084L178.94079892857147,100.45721541341146L181.50932714285716,102.68153995768228L184.07785535714288,105.26187915039063L186.6463835714286,108.7289414876302L189.2149117857143,112.22717504882813L191.78344,115.3682587890625L194.35196821428573,118.26966772460938L196.92049642857143,121.16955798339845L199.48902464285715,124.36858154296876L202.05755285714287,127.6522674967448L204.6260810714286,131.86700968424478L207.19460928571428,135.90762561035157L209.7631375,139.9140789794922L212.33166571428572,143.25987727864586L214.90019392857147,147.2931299235026L217.46872214285716,152.134057820638L220.03725035714288,156.8413575032552L222.6057785714286,159.53544405110677L225.1743067857143,162.37176464843748L227.742835,167.75582657877604L230.31136321428573,172.75198164876304L232.87989142857143,176.24975500488281L235.44841964285715,178.25365665690103L238.01694785714287,180.66916573079428L240.5854760714286,184.36702091471355L243.15400428571428,189.9194258626302L245.7225325,196.06288753255205L248.29106071428575,202.15630957031252L250.85958892857144,208.33629618326825L253.42811714285716,213.20695332845054L255.99664535714288,217.38316101074219L258.5651735714286,220.10742167154947L261.1337017857143,223.70134720865886L263.70223000000004,226.15154040527344L266.2707582142857,228.1886228434245L268.8392864285714,229.35646993001305L271.40781464285715,230.29275716145833L273.97634285714287,231.1516072184245L276.5448710714286,233.50992814127605L279.1133992857143,236.73147106933592L281.6819275,236.92423563639323L284.25045571428575,236.6935655110677L286.81898392857147,239.02795576985676L289.3875121428572,243.81214038085938L291.95604035714285,248.91966507975263L294.5245685714286,254.2123072713216L297.0930967857143,257.53300138346356L299.661625,260.6990589192708L302.23015321428574,265.72966033935546L304.79868142857146,270.18377052815754L307.3672096428572,272.35318493652346L309.93573785714284,273.5173120320638L312.5042660714286,275.8139961547852L315.0727942857143,278.6186623128255L317.64132250000006,281.71170831298826L320.2098507142857,285.26881744384764L322.77837892857144,288.37315380859377L325.34690714285716,291.1674883626302L327.9154353571429,293.0932318522136L330.48396357142855,295.34150240071614L333.0524917857143,298.05062998453775L335.62102000000004,302.19680161539713L338.1895482142857,308.47063938395183L340.7580764285715,315.3213940734863L343.32660464285715,320.62370057169596L345.89513285714287,324.0566348673502L348.4636610714286,326.1289690144857L351.0321892857143,326.7516264851888L353.6007175,328.4499212849935L356.16924571428575,329.2552955118815L358.7377739285714,330.6944871826172L361.3063021428572,331.5098593648275L363.87483035714286,331.8234967956543L366.4433585714286,332.20295505777995L369.01188678571435,332.38136889648433L371.580415,332.30561530558265L374.14894321428574,332.35697802734376L376.71747142857146,332.8953259277344L379.2859996428572,332.55801478068037L381.85452785714284,333.5918117980957L384.4230560714286,333.87114477539063L386.9915842857143,333.79373828125L389.56011250000006,333.35622131347657L392.1286407142857,332.2472114461263L394.69716892857144,335.8121018778483L397.26569714285716,339.51733951822916L399.8342253571429,342.3720644836426L402.40275357142855,343.6386408996582L404.9712817857143,344.10481330362956L407.53981000000005,346.34621529134114L410.1083382142857,346.7548563079834L412.6768664285715,347.64418728129067L415.24539464285715,346.2032640889486L417.81392285714287,345.33085140482586L420.3824510714286,345.85327620951335L422.9509792857143,345.6075401204427L425.5195075,341.46244613647457L428.08803571428575,337.5720756632487L430.6565639285714,329.8920966186524L433.2250921428572,325.3347125752767L435.79362035714286,327.1247761027018L438.3621485714286,332.0813343607585L440.93067678571435,335.9870833536784L443.499205,336.9791244303385L446.06773321428574,336.37982236735024L448.63626142857146,337.3551656697591L451.2047896428572,340.86856298828127L453.77331785714284,344.2152932027181L456.3418460714286,343.8152177530925L458.9103742857143,344.89399789937335L461.47890250000006,346.88983445739746L464.0474307142857,348.9330318705241L466.61595892857144,349.8156975402832L469.1844871428571,347.10726601664226L471.7530153571429,344.98875220743815L474.3215435714286,344.02787084960937L476.8900717857143,342.74910283406575L479.45860000000005,340.8438538106282L482.0271282142857,338.39659825642906L484.5956564285715,338.31227718098955L487.16418464285715,339.37253982543945L489.7327128571429,342.5699449971517L492.3012410714286,346.9465873311361L494.8697692857143,352.4678383127848L497.4382975,356.00556897481283L500.00682571428575,358.41301103719076L502.5753539285714,355.38561329142254L505.1438821428572,352.24612109375L507.7124103571429,347.7964020284017L510.2809385714286,342.23277958170576L512.8494667857143,341.2516415303548L515.417995,344.1525058898926L517.9865232142857,347.1838096262614L520.5550514285715,348.63370681762694L523.1235796428572,349.7218080342611L525.6921078571429,350.31182162475585L528.2606360714286,351.41869729105633L530.8291642857143,352.41570666503907L533.3976925000001,352.90450390116376L535.9662207142857,352.40335399373373L538.5347489285715,352.37259120178226L541.1032771428571,352.8965691986084L543.6718053571428,352.77404151407876L546.2403335714287,349.4966661224365L548.8088617857143,347.08840527852374L551.3773900000001,345.75972993977865" style="fill: none;" fill="none"></path></g></g></g></g></g></g><g transform="translate(72, 377)" clip-path="url(#clip_1)"><clipPath id="clip_1"><rect width="599" height="22"></rect></clipPath><g><g><line x1="0" y1="0" x2="0" y2="5" style="visibility: inherit;" fill="rgb(0, 0, 0)" stroke="rgb(204, 204, 204)" stroke-width="1px"></line><line x1="42.80880357142857" y1="0" x2="42.80880357142857" y2="5" style="visibility: inherit;" fill="rgb(0, 0, 0)" stroke="rgb(204, 204, 204)" stroke-width="1px"></line><line x1="85.61760714285714" y1="0" x2="85.61760714285714" y2="5" style="visibility: inherit;" fill="rgb(0, 0, 0)" stroke="rgb(204, 204, 204)" stroke-width="1px"></line><line x1="128.4264107142857" y1="0" x2="128.4264107142857" y2="5" style="visibility: inherit;" fill="rgb(0, 0, 0)" stroke="rgb(204, 204, 204)" stroke-width="1px"></line><line x1="171.23521428571428" y1="0" x2="171.23521428571428" y2="5" style="visibility: inherit;" fill="rgb(0, 0, 0)" stroke="rgb(204, 204, 204)" stroke-width="1px"></line><line x1="214.04401785714288" y1="0" x2="214.04401785714288" y2="5" style="visibility: inherit;" fill="rgb(0, 0, 0)" stroke="rgb(204, 204, 204)" stroke-width="1px"></line><line x1="256.8528214285714" y1="0" x2="256.8528214285714" y2="5" style="visibility: inherit;" fill="rgb(0, 0, 0)" stroke="rgb(204, 204, 204)" stroke-width="1px"></line><line x1="299.661625" y1="0" x2="299.661625" y2="5" style="visibility: inherit;" fill="rgb(0, 0, 0)" stroke="rgb(204, 204, 204)" stroke-width="1px"></line><line x1="342.47042857142856" y1="0" x2="342.47042857142856" y2="5" style="visibility: inherit;" fill="rgb(0, 0, 0)" stroke="rgb(204, 204, 204)" stroke-width="1px"></line><line x1="385.2792321428572" y1="0" x2="385.2792321428572" y2="5" style="visibility: inherit;" fill="rgb(0, 0, 0)" stroke="rgb(204, 204, 204)" stroke-width="1px"></line><line x1="428.08803571428575" y1="0" x2="428.08803571428575" y2="5" style="visibility: inherit;" fill="rgb(0, 0, 0)" stroke="rgb(204, 204, 204)" stroke-width="1px"></line><line x1="470.8968392857143" y1="0" x2="470.8968392857143" y2="5" style="visibility: inherit;" fill="rgb(0, 0, 0)" stroke="rgb(204, 204, 204)" stroke-width="1px"></line><line x1="513.7056428571428" y1="0" x2="513.7056428571428" y2="5" style="visibility: inherit;" fill="rgb(0, 0, 0)" stroke="rgb(204, 204, 204)" stroke-width="1px"></line><line x1="556.5144464285714" y1="0" x2="556.5144464285714" y2="5" style="visibility: inherit;" fill="rgb(0, 0, 0)" stroke="rgb(204, 204, 204)" stroke-width="1px"></line><line x1="599.32325" y1="0" x2="599.32325" y2="5" style="visibility: inherit;" fill="rgb(0, 0, 0)" stroke="rgb(204, 204, 204)" stroke-width="1px"></line></g><g transform="translate(0, 8)"><text x="0" y="0" dx="0em" dy="0.95em" style="text-anchor: middle; visibility: hidden; font-family: Roboto, sans-serif; font-size: 12px; font-weight: 200;" fill="rgb(255, 255, 255)" stroke="none" stroke-width="1px">-50</text><text x="42.80880357142857" y="0" dx="0em" dy="0.95em" style="text-anchor: middle; visibility: inherit; font-family: Roboto, sans-serif; font-size: 12px; font-weight: 200;" fill="rgb(255, 255, 255)" stroke="none" stroke-width="1px">0</text><text x="85.61760714285714" y="0" dx="0em" dy="0.95em" style="text-anchor: middle; visibility: inherit; font-family: Roboto, sans-serif; font-size: 12px; font-weight: 200;" fill="rgb(255, 255, 255)" stroke="none" stroke-width="1px">50</text><text x="128.4264107142857" y="0" dx="0em" dy="0.95em" style="text-anchor: middle; visibility: inherit; font-family: Roboto, sans-serif; font-size: 12px; font-weight: 200;" fill="rgb(255, 255, 255)" stroke="none" stroke-width="1px">100</text><text x="171.23521428571428" y="0" dx="0em" dy="0.95em" style="text-anchor: middle; visibility: inherit; font-family: Roboto, sans-serif; font-size: 12px; font-weight: 200;" fill="rgb(255, 255, 255)" stroke="none" stroke-width="1px">150</text><text x="214.04401785714288" y="0" dx="0em" dy="0.95em" style="text-anchor: middle; visibility: inherit; font-family: Roboto, sans-serif; font-size: 12px; font-weight: 200;" fill="rgb(255, 255, 255)" stroke="none" stroke-width="1px">200</text><text x="256.8528214285714" y="0" dx="0em" dy="0.95em" style="text-anchor: middle; visibility: inherit; font-family: Roboto, sans-serif; font-size: 12px; font-weight: 200;" fill="rgb(255, 255, 255)" stroke="none" stroke-width="1px">250</text><text x="299.661625" y="0" dx="0em" dy="0.95em" style="text-anchor: middle; visibility: inherit; font-family: Roboto, sans-serif; font-size: 12px; font-weight: 200;" fill="rgb(255, 255, 255)" stroke="none" stroke-width="1px">300</text><text x="342.47042857142856" y="0" dx="0em" dy="0.95em" style="text-anchor: middle; visibility: inherit; font-family: Roboto, sans-serif; font-size: 12px; font-weight: 200;" fill="rgb(255, 255, 255)" stroke="none" stroke-width="1px">350</text><text x="385.2792321428572" y="0" dx="0em" dy="0.95em" style="text-anchor: middle; visibility: inherit; font-family: Roboto, sans-serif; font-size: 12px; font-weight: 200;" fill="rgb(255, 255, 255)" stroke="none" stroke-width="1px">400</text><text x="428.08803571428575" y="0" dx="0em" dy="0.95em" style="text-anchor: middle; visibility: inherit; font-family: Roboto, sans-serif; font-size: 12px; font-weight: 200;" fill="rgb(255, 255, 255)" stroke="none" stroke-width="1px">450</text><text x="470.8968392857143" y="0" dx="0em" dy="0.95em" style="text-anchor: middle; visibility: inherit; font-family: Roboto, sans-serif; font-size: 12px; font-weight: 200;" fill="rgb(255, 255, 255)" stroke="none" stroke-width="1px">500</text><text x="513.7056428571428" y="0" dx="0em" dy="0.95em" style="text-anchor: middle; visibility: inherit; font-family: Roboto, sans-serif; font-size: 12px; font-weight: 200;" fill="rgb(255, 255, 255)" stroke="none" stroke-width="1px">550</text><text x="556.5144464285714" y="0" dx="0em" dy="0.95em" style="text-anchor: middle; visibility: inherit; font-family: Roboto, sans-serif; font-size: 12px; font-weight: 200;" fill="rgb(255, 255, 255)" stroke="none" stroke-width="1px">600</text><text x="599.32325" y="0" dx="0em" dy="0.95em" style="text-anchor: middle; visibility: hidden; font-family: Roboto, sans-serif; font-size: 12px; font-weight: 200;" fill="rgb(255, 255, 255)" stroke="none" stroke-width="1px">650</text></g><line x1="0" y1="0" x2="599.32325" y2="0" fill="rgb(0, 0, 0)" stroke="rgb(204, 204, 204)" stroke-width="1px"></line></g></g></g></g></svg>