<svg viewBox="0 0 671.6666259765625 400" xmlns="http://www.w3.org/2000/svg"><g><g><g><g><g><line x1="51.5625" y1="312.7968160530046" x2="46.5625" y2="312.7968160530046" style="visibility: inherit;" fill="rgb(0, 0, 0)" stroke="rgb(204, 204, 204)" stroke-width="1px"></line><line x1="51.5625" y1="273.04926911110294" x2="46.5625" y2="273.04926911110294" style="visibility: inherit;" fill="rgb(0, 0, 0)" stroke="rgb(204, 204, 204)" stroke-width="1px"></line><line x1="51.5625" y1="244.84793575230182" x2="46.5625" y2="244.84793575230182" style="visibility: inherit;" fill="rgb(0, 0, 0)" stroke="rgb(204, 204, 204)" stroke-width="1px"></line><line x1="51.5625" y1="222.97328216736716" x2="46.5625" y2="222.97328216736716" style="visibility: inherit;" fill="rgb(0, 0, 0)" stroke="rgb(204, 204, 204)" stroke-width="1px"></line><line x1="51.5625" y1="205.10038881040023" x2="46.5625" y2="205.10038881040023" style="visibility: inherit;" fill="rgb(0, 0, 0)" stroke="rgb(204, 204, 204)" stroke-width="1px"></line><line x1="51.5625" y1="189.9890727932265" x2="46.5625" y2="189.9890727932265" style="visibility: inherit;" fill="rgb(0, 0, 0)" stroke="rgb(204, 204, 204)" stroke-width="1px"></line><line x1="51.5625" y1="176.89905545159908" x2="46.5625" y2="176.89905545159908" style="visibility: inherit;" fill="rgb(0, 0, 0)" stroke="rgb(204, 204, 204)" stroke-width="1px"></line><line x1="51.5625" y1="165.35284186849864" x2="46.5625" y2="165.35284186849864" style="visibility: inherit;" fill="rgb(0, 0, 0)" stroke="rgb(204, 204, 204)" stroke-width="1px"></line><line x1="51.5625" y1="155.02440186666445" x2="46.5625" y2="155.02440186666445" style="visibility: inherit;" fill="rgb(0, 0, 0)" stroke="rgb(204, 204, 204)" stroke-width="1px"></line><line x1="51.5625" y1="87.07552156596171" x2="46.5625" y2="87.07552156596171" style="visibility: inherit;" fill="rgb(0, 0, 0)" stroke="rgb(204, 204, 204)" stroke-width="1px"></line><line x1="51.5625" y1="47.32797462406016" x2="46.5625" y2="47.32797462406016" style="visibility: inherit;" fill="rgb(0, 0, 0)" stroke="rgb(204, 204, 204)" stroke-width="1px"></line><line x1="51.5625" y1="19.126641265258932" x2="46.5625" y2="19.126641265258932" style="visibility: inherit;" fill="rgb(0, 0, 0)" stroke="rgb(204, 204, 204)" stroke-width="1px"></line></g><g transform="translate(41.5625, 0)"><text x="0" y="312.7968160530046" dx="0em" dy="0.3em" style="text-anchor: end; visibility: inherit; font-family: Roboto, sans-serif; font-size: 12px; font-weight: 200;" fill="rgb(255, 255, 255)" stroke="none" stroke-width="1px">200</text><text x="0" y="273.04926911110294" dx="0em" dy="0.3em" style="text-anchor: end; visibility: hidden; font-family: Roboto, sans-serif; font-size: 12px; font-weight: 200;" fill="rgb(255, 255, 255)" stroke="none" stroke-width="1px">300</text><text x="0" y="244.84793575230182" dx="0em" dy="0.3em" style="text-anchor: end; visibility: hidden; font-family: Roboto, sans-serif; font-size: 12px; font-weight: 200;" fill="rgb(255, 255, 255)" stroke="none" stroke-width="1px">400</text><text x="0" y="222.97328216736716" dx="0em" dy="0.3em" style="text-anchor: end; visibility: inherit; font-family: Roboto, sans-serif; font-size: 12px; font-weight: 200;" fill="rgb(255, 255, 255)" stroke="none" stroke-width="1px">500</text><text x="0" y="205.10038881040023" dx="0em" dy="0.3em" style="text-anchor: end; visibility: hidden; font-family: Roboto, sans-serif; font-size: 12px; font-weight: 200;" fill="rgb(255, 255, 255)" stroke="none" stroke-width="1px">600</text><text x="0" y="189.9890727932265" dx="0em" dy="0.3em" style="text-anchor: end; visibility: hidden; font-family: Roboto, sans-serif; font-size: 12px; font-weight: 200;" fill="rgb(255, 255, 255)" stroke="none" stroke-width="1px">700</text><text x="0" y="176.89905545159908" dx="0em" dy="0.3em" style="text-anchor: end; visibility: inherit; font-family: Roboto, sans-serif; font-size: 12px; font-weight: 200;" fill="rgb(255, 255, 255)" stroke="none" stroke-width="1px">800</text><text x="0" y="165.35284186849864" dx="0em" dy="0.3em" style="text-anchor: end; visibility: hidden; font-family: Roboto, sans-serif; font-size: 12px; font-weight: 200;" fill="rgb(255, 255, 255)" stroke="none" stroke-width="1px">900</text><text x="0" y="155.02440186666445" dx="0em" dy="0.3em" style="text-anchor: end; visibility: hidden; font-family: Roboto, sans-serif; font-size: 12px; font-weight: 200;" fill="rgb(255, 255, 255)" stroke="none" stroke-width="1px">1e+3</text><text x="0" y="87.07552156596171" dx="0em" dy="0.3em" style="text-anchor: end; visibility: inherit; font-family: Roboto, sans-serif; font-size: 12px; font-weight: 200;" fill="rgb(255, 255, 255)" stroke="none" stroke-width="1px">2e+3</text><text x="0" y="47.32797462406016" dx="0em" dy="0.3em" style="text-anchor: end; visibility: hidden; font-family: Roboto, sans-serif; font-size: 12px; font-weight: 200;" fill="rgb(255, 255, 255)" stroke="none" stroke-width="1px">3e+3</text><text x="0" y="19.126641265258932" dx="0em" dy="0.3em" style="text-anchor: end; visibility: hidden; font-family: Roboto, sans-serif; font-size: 12px; font-weight: 200;" fill="rgb(255, 255, 255)" stroke="none" stroke-width="1px">4e+3</text></g><line x1="51.5625" y1="0" x2="51.5625" y2="377" fill="rgb(0, 0, 0)" stroke="rgb(204, 204, 204)" stroke-width="1px"></line></g></g><g transform="translate(51, 0)" clip-path="url(#clip_0)"><clipPath id="clip_0"><rect width="620" height="376"></rect></clipPath><g><g><g><line x1="0" y1="0" x2="0" y2="377" fill="rgb(0, 0, 0)" stroke="rgb(189, 189, 189)" stroke-width="1px" opacity="0.25"></line><line x1="51.675375" y1="0" x2="51.675375" y2="377" fill="rgb(0, 0, 0)" stroke="rgb(189, 189, 189)" stroke-width="1px" opacity="0.25"></line><line x1="103.35075" y1="0" x2="103.35075" y2="377" fill="rgb(0, 0, 0)" stroke="rgb(189, 189, 189)" stroke-width="1px" opacity="0.25"></line><line x1="155.026125" y1="0" x2="155.026125" y2="377" fill="rgb(0, 0, 0)" stroke="rgb(189, 189, 189)" stroke-width="1px" opacity="0.25"></line><line x1="206.7015" y1="0" x2="206.7015" y2="377" fill="rgb(0, 0, 0)" stroke="rgb(189, 189, 189)" stroke-width="1px" opacity="0.25"></line><line x1="258.37687500000004" y1="0" x2="258.37687500000004" y2="377" fill="rgb(0, 0, 0)" stroke="rgb(189, 189, 189)" stroke-width="1px" opacity="0.25"></line><line x1="310.05225" y1="0" x2="310.05225" y2="377" fill="rgb(0, 0, 0)" stroke="rgb(189, 189, 189)" stroke-width="1px" opacity="0.25"></line><line x1="361.72762500000005" y1="0" x2="361.72762500000005" y2="377" fill="rgb(0, 0, 0)" stroke="rgb(189, 189, 189)" stroke-width="1px" opacity="0.25"></line><line x1="413.403" y1="0" x2="413.403" y2="377" fill="rgb(0, 0, 0)" stroke="rgb(189, 189, 189)" stroke-width="1px" opacity="0.25"></line><line x1="465.07837500000005" y1="0" x2="465.07837500000005" y2="377" fill="rgb(0, 0, 0)" stroke="rgb(189, 189, 189)" stroke-width="1px" opacity="0.25"></line><line x1="516.7537500000001" y1="0" x2="516.7537500000001" y2="377" fill="rgb(0, 0, 0)" stroke="rgb(189, 189, 189)" stroke-width="1px" opacity="0.25"></line><line x1="568.429125" y1="0" x2="568.429125" y2="377" fill="rgb(0, 0, 0)" stroke="rgb(189, 189, 189)" stroke-width="1px" opacity="0.25"></line><line x1="620.1045" y1="0" x2="620.1045" y2="377" fill="rgb(0, 0, 0)" stroke="rgb(189, 189, 189)" stroke-width="1px" opacity="0.25"></line></g><g><line x1="0" y1="312.7968160530046" x2="620.1045" y2="312.7968160530046" fill="rgb(0, 0, 0)" stroke="rgb(189, 189, 189)" stroke-width="1px" opacity="0.25"></line><line x1="0" y1="273.04926911110294" x2="620.1045" y2="273.04926911110294" fill="rgb(0, 0, 0)" stroke="rgb(189, 189, 189)" stroke-width="1px" opacity="0.25"></line><line x1="0" y1="244.84793575230182" x2="620.1045" y2="244.84793575230182" fill="rgb(0, 0, 0)" stroke="rgb(189, 189, 189)" stroke-width="1px" opacity="0.25"></line><line x1="0" y1="222.97328216736716" x2="620.1045" y2="222.97328216736716" fill="rgb(0, 0, 0)" stroke="rgb(189, 189, 189)" stroke-width="1px" opacity="0.25"></line><line x1="0" y1="205.10038881040023" x2="620.1045" y2="205.10038881040023" fill="rgb(0, 0, 0)" stroke="rgb(189, 189, 189)" stroke-width="1px" opacity="0.25"></line><line x1="0" y1="189.9890727932265" x2="620.1045" y2="189.9890727932265" fill="rgb(0, 0, 0)" stroke="rgb(189, 189, 189)" stroke-width="1px" opacity="0.25"></line><line x1="0" y1="176.89905545159908" x2="620.1045" y2="176.89905545159908" fill="rgb(0, 0, 0)" stroke="rgb(189, 189, 189)" stroke-width="1px" opacity="0.25"></line><line x1="0" y1="165.35284186849864" x2="620.1045" y2="165.35284186849864" fill="rgb(0, 0, 0)" stroke="rgb(189, 189, 189)" stroke-width="1px" opacity="0.25"></line><line x1="0" y1="155.02440186666445" x2="620.1045" y2="155.02440186666445" fill="rgb(0, 0, 0)" stroke="rgb(189, 189, 189)" stroke-width="1px" opacity="0.25"></line><line x1="0" y1="87.07552156596171" x2="620.1045" y2="87.07552156596171" fill="rgb(0, 0, 0)" stroke="rgb(189, 189, 189)" stroke-width="1px" opacity="0.25"></line><line x1="0" y1="47.32797462406016" x2="620.1045" y2="47.32797462406016" fill="rgb(0, 0, 0)" stroke="rgb(189, 189, 189)" stroke-width="1px" opacity="0.25"></line><line x1="0" y1="19.126641265258932" x2="620.1045" y2="19.126641265258932" fill="rgb(0, 0, 0)" stroke="rgb(189, 189, 189)" stroke-width="1px" opacity="0.25"></line></g></g></g><g><g><line x1="51.675375" y1="0" x2="51.675375" y2="377" fill="rgb(0, 0, 0)" stroke="rgb(153, 153, 153)" stroke-width="1.5px"></line></g></g><g><g><g><g><g><path stroke="rgb(51, 187, 238)" stroke-width="2px" d="M51.675375,53.85714285714275L54.25914375,53.88355911324108L56.8429125,53.91515126857921L59.42668125000001,53.95506045509066L62.010450000000006,54.0053653760735L64.59421875000001,54.0645042749922L67.1779875,54.13209990655371L69.76175625,54.20775621725426L72.34552500000001,54.293144672816524L74.92929375,54.389039952338315L77.5130625,54.497917910756506L80.09683125000001,54.62092556161075L82.6806,54.75987776469309L85.26436875000002,54.90997276581677L87.8481375,55.06699980307869L90.43190625000001,55.236778455584975L93.015675,55.42067145104136L95.59944375,55.619093015571536L98.1832125,55.82815390852313L100.76698125000001,56.05213550612124L103.35075,56.29850186886151L105.93451875000001,56.58269322436069L108.5182875,56.903401182239776L111.10205625,57.24865145343032L113.685825,57.604920354952206L116.26959375000001,57.95959053353471L118.85336250000002,58.316652003079994L121.43713125000001,58.6735660275368L124.02090000000001,59.04745828615234L126.60466875,59.41371117306795L129.18843750000002,59.7885205263413L131.77220625,60.228603792990306L134.355975,60.72207154418695L136.93974375,61.270828743086234L139.5235125,61.86830751275084L142.10728125,62.48957330731977L144.69105000000002,63.11983158531483L147.27481875,63.726658321354584L149.8585875,64.28750781821348L152.44235625,64.8572002354038L155.026125,65.476346398209L157.60989375,66.12070610651274L160.19366250000002,66.78977592661965L162.77743125,67.61300292492307L165.3612,68.63501005509082L167.94496875,69.70508722171947L170.52873750000003,70.77984161814304L173.11250625000002,71.85684264578497L175.696275,72.91389416734931L178.28004375,73.93871047069544L180.86381250000002,74.89476690697391L183.44758125,75.71331813473621L186.03135,76.5052700794833L188.61511875,77.297111300365L191.1988875,78.14212501409762L193.78265625,79.15029138771408L196.366425,80.26805106005631L198.95019375000004,81.40630810553527L201.53396250000003,82.52685067428388L204.11773125000002,83.64125716950008L206.7015,84.80248077232005L209.28526875000003,86.01134340045526L211.86903750000002,87.40142489532789L214.45280625,88.88508288796224L217.036575,90.43088500345397L219.62034375000002,91.91709827870552L222.2041125,93.48926673826901L224.78788125,95.2624374233286L227.37165,97.1525024349209L229.95541875,98.77675043475729L232.53918750000003,100.26933352906757L235.12295625000002,102.15068557384706L237.70672500000003,104.22116360538568L240.29049375000002,106.14543223752156L242.87426250000001,107.70349200015669L245.45803125,109.121114544358L248.04180000000002,110.71313601888528L250.62556875,112.80069167645449L253.2093375,115.34549138535581L255.79310625,118.20202257455033L258.37687500000004,121.3145517785301L260.96064375000003,124.33567199140475L263.5444125,127.16998799910535L266.12818125,129.56420061042715L268.71195,131.91119707674687L271.29571875,133.9616314637508L273.8794875,135.7334997896732L276.46325625000003,137.1152885190411L279.047025,138.19957533845852L281.63079375,139.08345455806636L284.2145625,140.24850400024667L286.79833125000005,141.8289452573199L289.38210000000004,142.84269220055936L291.96586875,143.39206747487702L294.5496375,144.37442219857385L297.13340625,146.32521022567036L299.717175,149.00199234414723L302.30094375,152.23601509632545L304.8847125,155.26212057326958L307.46848125,158.1381834271573L310.05225,161.5690885952176L312.63601875,165.2168865144168L315.2197875,168.24415646490644L317.80355625,170.5310074514217L320.38732500000003,172.78440191807803L322.97109375,175.23134503568738L325.5548625,177.94115340799843L328.13863125,181.0404344074437L330.7224,184.24456604612388L333.30616875,187.42453429068414L335.8899375,190.24009735389714L338.47370624999996,192.9970905901077L341.05747500000007,195.96447341829693L343.64124375000006,199.81095909425713L346.22501250000005,205.41312618012932L348.80878125000004,212.71151748305718L351.39255,220.54238744461918L353.97631875,227.78461280223408L356.5600875,233.83578593391488L359.14385625000006,238.10669965879413L361.72762500000005,242.04053217603646L364.31139375000004,245.10680478100585L366.8951625,248.14798002300722L369.47893125,250.69183525609193L372.0627,252.51465701119542L374.64646875,253.94911152966293L377.2302375,254.97416922724733L379.81400625000003,255.52847067023689L382.397775,255.90740389500283L384.98154375,256.6078061065064L387.5653125,256.7329670153268L390.14908125,257.72348498667395L392.73285,258.57296377169L395.31661875,259.0164097366733L397.9003875000001,258.88879534080337L400.48415625000007,257.81979085206547L403.06792500000006,260.38958834323154L405.65169375000005,265.46808891066905L408.23546250000004,271.52718412905614L410.81923125000003,276.7089873466924L413.403,280.47649746444085L415.98676875,285.4182750945288L418.57053750000006,289.0064098691099L421.15430625000005,292.343860686258L423.73807500000004,292.5563196687297L426.32184375,291.58161466675557L428.9056125,291.65616844094797L431.48938125,291.39225974636605L434.07315,286.17690552864474L436.65691875000005,278.7888034667879L439.24068750000004,266.81167183187546L441.82445625,256.1953201122728L444.408225,251.8249400699918L446.99199375,253.42500080093365L449.5757625,257.8151340053374L452.15953125,261.45930150396265L454.7433,263.1475777727574L457.32706875,265.1057374516513L459.9108375,269.7715977135846L462.49460625,276.21230565383615L465.07837500000005,279.8431602403137L467.66214375000004,283.3262326159986L470.24591250000003,287.8623073040023L472.82968125,293.26592181582765L475.41345000000007,297.8321599040357L477.99721875000006,297.0128137071503L480.58098750000005,293.7640315294785L483.16475625000004,290.66174597587917L485.74852500000003,287.2961381728734L488.33229375,283.11007867226954L490.9160625,277.9680587331039L493.49983125,274.9180928740534L496.08360000000005,274.24262583588836L498.66736875000004,277.2507804367587L501.2511375,284.0667015151696L503.83490625,295.3529860276238L506.418675,307.9220772295002L509.00244375,320.2905839079093L511.5862125,323.14285714285717L514.1699812500001,319.50443374902494L516.7537500000001,310.3669212479915L519.3375187500001,297.5414117588082L521.9212875000001,289.36849551667706L524.50505625,288.23388961188874L527.088825,291.28513839248734L529.67259375,295.03172977051076L532.2563625,298.8113560795625L534.84013125,301.971947789401L537.4239,305.5085940822547L540.00766875,309.1813067155977L542.5914375,312.2079654086447L545.17520625,313.2809493921125L547.758975,313.8818818906655L550.34274375,315.0773929399922L552.9265125000001,315.6048466948795L555.51028125,310.78104087287267L558.09405,304.48276559923L560.67781875,299.0704615268852" style="fill: none;" fill="none"></path></g></g></g></g><g opacity="0.2"><g><g><g><path stroke="rgb(51, 187, 238)" stroke-width="2px" d="M51.675375,53.85714285714275L54.25914375,53.89941228443333L56.8429125,53.94548931924192L59.42668125000001,54.00201445648355L62.010450000000006,54.07108235825134L64.59421875000001,54.14637352129782L67.1779875,54.22884379736652L69.76175625,54.31816857796078L72.34552500000001,54.41921194838571L74.92929375,54.531606554461604L77.5130625,54.660472214282144L80.09683125000001,54.805055845768315L82.6806,54.968221073532774L85.26436875000002,55.13525209510001L87.8481375,55.30282781740265L90.43190625000001,55.491878882260536L93.015675,55.69708126326947L95.59944375,55.91742986394192L98.1832125,56.14255161650361L100.76698125000001,56.38904982212085L103.35075,56.66920267126729L105.93451875000001,57.01052162662942L108.5182875,57.386432638030094L111.10205625,57.76881338571226L113.685825,58.14176071307229L116.26959375000001,58.49401193614833L118.85336250000002,58.85469373654067L121.43713125000001,59.21138493342464L124.02090000000001,59.61098385342276L126.60466875,59.96566885512506L129.18843750000002,60.353435191567904L131.77220625,60.89245529331126L134.355975,61.46696220319998L136.93974375,62.09976761488807L139.5235125,62.771409565179205L142.10728125,63.42891738095252L144.69105000000002,64.07288243342924L147.27481875,64.64400034809596L149.8585875,65.13484474995681L152.44235625,65.71799499649124L155.026125,66.41246010611029L157.60989375,67.09525742261442L160.19366250000002,67.80202160261302L162.77743125,68.86095272225539L165.3612,70.18828079337463L167.94496875,71.33242847529625L170.52873750000003,72.41439488509768L173.11250625000002,73.49486039700673L175.696275,74.52115525121056L178.28004375,75.49630729058345L180.86381250000002,76.34656502903293L183.44758125,76.95410494745362L186.03135,77.705324922975L188.61511875,78.49699664883529L191.1988875,79.42346209265585L193.78265625,80.68225218121343L196.366425,81.96895695424126L198.95019375000004,83.13886535799759L201.53396250000003,84.23205283633659L204.11773125000002,85.33698680191218L206.7015,86.57052222619154L209.28526875000003,87.85305646956678L211.86903750000002,89.52422021644169L214.45280625,91.15354175012237L217.036575,92.7962757085669L219.62034375000002,94.18953974800752L222.2041125,95.89583099330108L224.78788125,97.98382099445543L227.37165,100.05773565396063L229.95541875,101.26472526810437L232.53918750000003,102.55170401434722L235.12295625000002,105.04219570159104L237.70672500000003,107.41125849446891L240.29049375000002,109.10456720241756L242.87426250000001,110.08802065680432L245.45803125,111.28674405212645L248.04180000000002,113.15072137220412L250.62556875,116.01782129846211L253.2093375,119.29101455348503L255.79310625,122.64922614720656L258.37687500000004,126.17687335806754L260.96064375000003,129.04944135790447L263.5444125,131.58130188005507L266.12818125,133.26886329513835L268.71195,135.54053637570064L271.29571875,137.12001177670433L273.8794875,138.45283820419542L276.46325625000003,139.22519224635306L279.047025,139.84882974959007L281.63079375,140.42439818261627L284.2145625,142.0224585771665L286.79833125000005,144.248434119687L289.38210000000004,144.38324420852186L291.96586875,144.22194662856626L294.5496375,145.86666244327506L297.13340625,149.32617066936737L299.717175,153.15941148111295L302.30094375,157.29634465147018L304.8847125,159.98398231159635L307.46848125,162.61695892262478L310.05225,166.9516689462988L312.63601875,170.95645455102087L315.2197875,172.9679086002524L317.80355625,174.0645335405241L320.38732500000003,176.26469687835595L322.97109375,179.02023951910252L325.5548625,182.15171218458903L328.13863125,185.88120328543374L330.7224,189.2561197247669L333.30616875,192.39668709420928L335.8899375,194.62113150418003L338.47370624999996,197.28365149176994L341.05747500000007,200.5910816044134L343.64124375000006,205.8793932524413L346.22501250000005,214.46661854162895L348.80878125000004,224.79159149651525L351.39255,233.60329577791245L353.97631875,239.76210651441778L356.5600875,243.67634007203614L359.14385625000006,244.88361735333723L361.72762500000005,248.25410359241081L364.31139375000004,249.8939075626628L366.8951625,252.89431044991204L369.47893125,254.63584475716698L372.0627,255.31406214401218L374.64646875,256.1409347041997L377.2302375,256.532137805079L379.81400625000003,256.3658442517471L382.397775,256.4785644061575L384.98154375,257.6678827092027L387.5653125,256.92100851720903L390.14908125,259.2282844664316L392.73285,259.86114571636006L395.31661875,259.68536271639476L397.9003875000001,258.69768469712324L400.48415625000007,256.2378289666411L403.06792500000006,264.37518808533554L405.65169375000005,273.61604198834374L408.23546250000004,281.381714288599L410.81923125000003,285.0345315621728L413.403,286.4140000244247L415.98676875,293.3319632948371L418.57053750000006,294.64756874170047L421.15430625000005,297.57326518123483L423.73807500000004,292.8758740106635L426.32184375,290.13749122461405L428.9056125,291.76810552250595L431.48938125,290.99772408756627L434.07315,278.8398824020483L436.65691875000005,268.65615391351196L439.24068750000004,251.21018639690664L441.82445625,242.15761714190546L444.408225,245.61431112494031L446.99199375,255.87515238173947L449.5757625,264.79254099735306L452.15953125,267.1928769419841L454.7433,265.73579352234475L457.32706875,268.11832939229737L459.9108375,277.215207421819L462.49460625,286.7437904763604L465.07837500000005,285.55476558809386L467.66214375000004,288.7944851923258L470.24591250000003,295.0860343690646L472.82968125,301.97451596580623L475.41345000000007,305.10691986125664L477.99721875000006,295.7964934718872L480.58098750000005,289.0842270455116L483.16475625000004,286.1849749122567L485.74852500000003,282.45493964600894L488.33229375,277.14819096808725L490.9160625,270.72790023451677L493.49983125,270.51400873644275L496.08360000000005,273.23807266074533L498.66736875000004,281.9435083183968L501.2511375,295.2709787613132L503.83490625,315.1701113122801L506.418675,330.4360282530751L509.00244375,342.37557151267464L511.5862125,327.58318013802653L514.1699812500001,314.28811806289974L516.7537500000001,298.08288680844663L519.3375187500001,280.9881983664282L521.9212875000001,278.26010072113417L524.50505625,286.55622975253686L527.088825,296.04783066940513L529.67259375,300.9345985998436L532.2563625,304.7689275701336L534.84013125,306.9125236289864L537.4239,311.06495459537416L540.00766875,314.9620164105379L542.5914375,316.93072522621276L545.17520625,314.9127726836146L547.758975,314.79024470792655L550.34274375,316.8984491951256L552.9265125000001,316.40138705088873L555.51028125,303.9631567992471L558.09405,295.7346615253643L560.67781875,291.474124308204" style="fill: none;" fill="none"></path></g></g></g></g></g></g><g transform="translate(51, 377)" clip-path="url(#clip_1)"><clipPath id="clip_1"><rect width="620" height="22"></rect></clipPath><g><g><line x1="0" y1="0" x2="0" y2="5" style="visibility: inherit;" fill="rgb(0, 0, 0)" stroke="rgb(204, 204, 204)" stroke-width="1px"></line><line x1="51.675375" y1="0" x2="51.675375" y2="5" style="visibility: inherit;" fill="rgb(0, 0, 0)" stroke="rgb(204, 204, 204)" stroke-width="1px"></line><line x1="103.35075" y1="0" x2="103.35075" y2="5" style="visibility: inherit;" fill="rgb(0, 0, 0)" stroke="rgb(204, 204, 204)" stroke-width="1px"></line><line x1="155.026125" y1="0" x2="155.026125" y2="5" style="visibility: inherit;" fill="rgb(0, 0, 0)" stroke="rgb(204, 204, 204)" stroke-width="1px"></line><line x1="206.7015" y1="0" x2="206.7015" y2="5" style="visibility: inherit;" fill="rgb(0, 0, 0)" stroke="rgb(204, 204, 204)" stroke-width="1px"></line><line x1="258.37687500000004" y1="0" x2="258.37687500000004" y2="5" style="visibility: inherit;" fill="rgb(0, 0, 0)" stroke="rgb(204, 204, 204)" stroke-width="1px"></line><line x1="310.05225" y1="0" x2="310.05225" y2="5" style="visibility: inherit;" fill="rgb(0, 0, 0)" stroke="rgb(204, 204, 204)" stroke-width="1px"></line><line x1="361.72762500000005" y1="0" x2="361.72762500000005" y2="5" style="visibility: inherit;" fill="rgb(0, 0, 0)" stroke="rgb(204, 204, 204)" stroke-width="1px"></line><line x1="413.403" y1="0" x2="413.403" y2="5" style="visibility: inherit;" fill="rgb(0, 0, 0)" stroke="rgb(204, 204, 204)" stroke-width="1px"></line><line x1="465.07837500000005" y1="0" x2="465.07837500000005" y2="5" style="visibility: inherit;" fill="rgb(0, 0, 0)" stroke="rgb(204, 204, 204)" stroke-width="1px"></line><line x1="516.7537500000001" y1="0" x2="516.7537500000001" y2="5" style="visibility: inherit;" fill="rgb(0, 0, 0)" stroke="rgb(204, 204, 204)" stroke-width="1px"></line><line x1="568.429125" y1="0" x2="568.429125" y2="5" style="visibility: inherit;" fill="rgb(0, 0, 0)" stroke="rgb(204, 204, 204)" stroke-width="1px"></line><line x1="620.1045" y1="0" x2="620.1045" y2="5" style="visibility: inherit;" fill="rgb(0, 0, 0)" stroke="rgb(204, 204, 204)" stroke-width="1px"></line></g><g transform="translate(0, 8)"><text x="0" y="0" dx="0em" dy="0.95em" style="text-anchor: middle; visibility: hidden; font-family: Roboto, sans-serif; font-size: 12px; font-weight: 200;" fill="rgb(255, 255, 255)" stroke="none" stroke-width="1px">-20</text><text x="51.675375" y="0" dx="0em" dy="0.95em" style="text-anchor: middle; visibility: inherit; font-family: Roboto, sans-serif; font-size: 12px; font-weight: 200;" fill="rgb(255, 255, 255)" stroke="none" stroke-width="1px">0</text><text x="103.35075" y="0" dx="0em" dy="0.95em" style="text-anchor: middle; visibility: inherit; font-family: Roboto, sans-serif; font-size: 12px; font-weight: 200;" fill="rgb(255, 255, 255)" stroke="none" stroke-width="1px">20</text><text x="155.026125" y="0" dx="0em" dy="0.95em" style="text-anchor: middle; visibility: inherit; font-family: Roboto, sans-serif; font-size: 12px; font-weight: 200;" fill="rgb(255, 255, 255)" stroke="none" stroke-width="1px">40</text><text x="206.7015" y="0" dx="0em" dy="0.95em" style="text-anchor: middle; visibility: inherit; font-family: Roboto, sans-serif; font-size: 12px; font-weight: 200;" fill="rgb(255, 255, 255)" stroke="none" stroke-width="1px">60</text><text x="258.37687500000004" y="0" dx="0em" dy="0.95em" style="text-anchor: middle; visibility: inherit; font-family: Roboto, sans-serif; font-size: 12px; font-weight: 200;" fill="rgb(255, 255, 255)" stroke="none" stroke-width="1px">80</text><text x="310.05225" y="0" dx="0em" dy="0.95em" style="text-anchor: middle; visibility: inherit; font-family: Roboto, sans-serif; font-size: 12px; font-weight: 200;" fill="rgb(255, 255, 255)" stroke="none" stroke-width="1px">100</text><text x="361.72762500000005" y="0" dx="0em" dy="0.95em" style="text-anchor: middle; visibility: inherit; font-family: Roboto, sans-serif; font-size: 12px; font-weight: 200;" fill="rgb(255, 255, 255)" stroke="none" stroke-width="1px">120</text><text x="413.403" y="0" dx="0em" dy="0.95em" style="text-anchor: middle; visibility: inherit; font-family: Roboto, sans-serif; font-size: 12px; font-weight: 200;" fill="rgb(255, 255, 255)" stroke="none" stroke-width="1px">140</text><text x="465.07837500000005" y="0" dx="0em" dy="0.95em" style="text-anchor: middle; visibility: inherit; font-family: Roboto, sans-serif; font-size: 12px; font-weight: 200;" fill="rgb(255, 255, 255)" stroke="none" stroke-width="1px">160</text><text x="516.7537500000001" y="0" dx="0em" dy="0.95em" style="text-anchor: middle; visibility: inherit; font-family: Roboto, sans-serif; font-size: 12px; font-weight: 200;" fill="rgb(255, 255, 255)" stroke="none" stroke-width="1px">180</text><text x="568.429125" y="0" dx="0em" dy="0.95em" style="text-anchor: middle; visibility: inherit; font-family: Roboto, sans-serif; font-size: 12px; font-weight: 200;" fill="rgb(255, 255, 255)" stroke="none" stroke-width="1px">200</text><text x="620.1045" y="0" dx="0em" dy="0.95em" style="text-anchor: middle; visibility: hidden; font-family: Roboto, sans-serif; font-size: 12px; font-weight: 200;" fill="rgb(255, 255, 255)" stroke="none" stroke-width="1px">220</text></g><line x1="0" y1="0" x2="620.1045" y2="0" fill="rgb(0, 0, 0)" stroke="rgb(204, 204, 204)" stroke-width="1px"></line></g></g></g></g></svg>